<svg xmlns="http://www.w3.org/2000/svg" width="446.45" height="483.712" viewBox="0 0 446.45 483.712">
  <g id="Group_10938" data-name="Group 10938" transform="translate(-16792.523 -7618)">
    <path id="Path_33866" data-name="Path 33866" d="M677.2,529.8l9.253,5.524-122.13,73.609-20.149-7.811Z" transform="translate(16551.824 7415.058)" fill="#362e4f"/>
    <path id="Path_33867" data-name="Path 33867" d="M749.242,530.7l9.1-5.243L813.816,557.3l-8.315,4.807Z" transform="translate(16423.563 7378.416)" fill="#362e4f"/>
    <g id="Group_10919" data-name="Group 10919" transform="translate(16940.645 7782.728)">
      <path id="Path_26637" data-name="Path 26637" d="M683.945,529.8l9.723,5.8L565.341,612.949l-21.171-8.207Z" transform="translate(-535.978 -399.457)" fill="#362e4f"/>
      <path id="Path_26638" data-name="Path 26638" d="M631.123,523.572a3.225,3.225,0,0,0,1.306,1.451L751.8,593.954a22.833,22.833,0,0,0,22.88,0L860.134,544.6a3.225,3.225,0,0,0,0-5.643l-6.45-3.709-113-65.254a22.945,22.945,0,0,0-22.9,0l-85.458,49.372A3.225,3.225,0,0,0,631.123,523.572Z" transform="translate(-576.9 -447.329)" fill="#83b9fd"/>
      <path id="Path_26639" data-name="Path 26639" d="M651.524,520.8V501.19l-20.784,9.8Z" transform="translate(-366.565 -426.35)" fill="#83b9fd"/>
      <path id="Path_26640" data-name="Path 26640" d="M762.21,489.15v19.284l19.059-10.481Z" transform="translate(-708.293 -433.723)" fill="#83b9fd"/>
      <path id="Path_26641" data-name="Path 26641" d="M632.465,512.878l119.318,68.93a22.833,22.833,0,0,0,22.88,0l85.458-49.372a3.225,3.225,0,0,0,0-5.627L740.69,457.847a22.864,22.864,0,0,0-22.9,0l-40.117,23.17-16.189,9.368-29.023,16.833a3.225,3.225,0,0,0,0,5.66Z" transform="translate(-576.888 -454.774)" fill="#e1f3ff"/>
      <path id="Path_26671" data-name="Path 26671" d="M690.237,530.449a7.771,7.771,0,0,1-3.886,6.724l-134.746,80.59-15-8.643a7.577,7.577,0,0,1,2.161-1.87L678.58,523.725a7.772,7.772,0,0,1,11.658,6.724Z" transform="translate(-536.61 -403.815)" fill="#c168eb"/>
    </g>
    <path id="Path_33791" data-name="Path 33791" d="M424.25,290.714a1.2,1.2,0,0,1,.009,2.27l-90.783,52.963a4.328,4.328,0,0,1-3.914,0l-123.525-71.2a1.2,1.2,0,0,1-.013-2.267l90.783-52.964a4.329,4.329,0,0,1,3.917,0Z" transform="translate(16794.295 7564.668)" fill="#abd77e"/>
    <g id="Group_10911" data-name="Group 10911" transform="translate(17020.309 7618)">
      <g id="Group_10452" data-name="Group 10452" transform="translate(68.785)">
        <path id="Path_32923" data-name="Path 32923" d="M342.492,351.979l-70.7-40.32-.652-184.2,70.7,40.32Z" transform="translate(-271.136 -127.458)" fill="#dba76e"/>
      </g>
      <g id="Group_10453" data-name="Group 10453">
        <path id="Path_32924" data-name="Path 32924" d="M231.37,350.635l67.481-38.977.652-184.2-68.785,38.977Z" transform="translate(-230.718 -127.458)" fill="#dba76e"/>
      </g>
      <g id="Group_10454" data-name="Group 10454" transform="translate(70.704 40.336)">
        <path id="Path_32925" data-name="Path 32925" d="M341.031,151.159l.652,184.2-68.768,38.96-.652-184.2Z" transform="translate(-272.263 -151.159)" fill="#424bb1"/>
      </g>
      <g id="Group_10455" data-name="Group 10455" transform="translate(0 38.976)">
        <path id="Path_32926" data-name="Path 32926" d="M302.074,374.881l-70.7-40.32-.652-184.2,70.7,40.32Z" transform="translate(-230.718 -150.36)" fill="#5866f2"/>
      </g>
      <g id="Group_10456" data-name="Group 10456" transform="translate(0 0.016)">
        <path id="Path_32927" data-name="Path 32927" d="M301.422,206.748l-70.7-40.32,68.768-38.96,70.7,40.32Z" transform="translate(-230.718 -127.468)" fill="#1e2d64"/>
      </g>
      <g id="Group_10460" data-name="Group 10460" transform="translate(7.536 86.947)">
        <g id="Group_10459" data-name="Group 10459">
          <path id="Path_32928" data-name="Path 32928" d="M240.151,181.412l-3.583-2.069-.043,14.99,13.045,7.531.012-4.086.031-10.9Z" transform="translate(-234.179 -177.988)" fill="#fff"/>
          <g id="Group_10457" data-name="Group 10457" transform="translate(0.003)">
            <path id="Path_32929" data-name="Path 32929" d="M235.19,178.547l2.347,1.353L237.5,194.89l-2.347,1.373Z" transform="translate(-235.148 -178.547)" fill="#41b8e4"/>
          </g>
          <g id="Group_10458" data-name="Group 10458" transform="translate(0 16.345)">
            <path id="Path_32930" data-name="Path 32930" d="M235.146,189.524l2.348-1.373,13.045,7.531v2.728Z" transform="translate(-235.146 -188.151)" fill="#86cce8"/>
          </g>
        </g>
      </g>
      <g id="Group_10464" data-name="Group 10464" transform="translate(27.589 98.446)">
        <g id="Group_10463" data-name="Group 10463">
          <path id="Path_32931" data-name="Path 32931" d="M251.934,188.169l-3.583-2.069-.042,14.99,13.045,7.532.012-4.086.031-10.9Z" transform="translate(-245.962 -184.745)" fill="#fff"/>
          <g id="Group_10461" data-name="Group 10461" transform="translate(0.002)">
            <path id="Path_32932" data-name="Path 32932" d="M246.973,185.3l2.347,1.353-.043,14.99-2.347,1.373Z" transform="translate(-246.931 -185.304)" fill="#41b8e4"/>
          </g>
          <g id="Group_10462" data-name="Group 10462" transform="translate(0 16.345)">
            <path id="Path_32933" data-name="Path 32933" d="M246.929,196.281l2.347-1.373,13.045,7.532v2.728Z" transform="translate(-246.929 -194.908)" fill="#86cce8"/>
          </g>
        </g>
      </g>
      <g id="Group_10468" data-name="Group 10468" transform="translate(47.638 109.881)">
        <g id="Group_10467" data-name="Group 10467">
          <path id="Path_32934" data-name="Path 32934" d="M263.714,194.888l-3.583-2.069-.043,14.99,13.045,7.531.012-4.086.031-10.9Z" transform="translate(-257.742 -191.464)" fill="#fff"/>
          <g id="Group_10465" data-name="Group 10465" transform="translate(0.002)">
            <path id="Path_32935" data-name="Path 32935" d="M258.754,192.023l2.347,1.353-.043,14.989-2.347,1.373Z" transform="translate(-258.711 -192.023)" fill="#41b8e4"/>
          </g>
          <g id="Group_10466" data-name="Group 10466" transform="translate(0 16.345)">
            <path id="Path_32936" data-name="Path 32936" d="M258.71,203l2.347-1.373,13.045,7.531v2.728Z" transform="translate(-258.71 -201.627)" fill="#86cce8"/>
          </g>
        </g>
      </g>
      <g id="Group_10472" data-name="Group 10472" transform="translate(7.536 115.087)">
        <g id="Group_10471" data-name="Group 10471">
          <path id="Path_32937" data-name="Path 32937" d="M240.151,197.947l-3.583-2.069-.043,14.99L249.57,218.4l.012-4.086.031-10.9Z" transform="translate(-234.179 -194.523)" fill="#fff"/>
          <g id="Group_10469" data-name="Group 10469" transform="translate(0.003)">
            <path id="Path_32938" data-name="Path 32938" d="M235.19,195.082l2.347,1.353-.043,14.99-2.347,1.373Z" transform="translate(-235.148 -195.082)" fill="#41b8e4"/>
          </g>
          <g id="Group_10470" data-name="Group 10470" transform="translate(0 16.345)">
            <path id="Path_32939" data-name="Path 32939" d="M235.146,206.059l2.348-1.373,13.045,7.532v2.728Z" transform="translate(-235.146 -204.686)" fill="#86cce8"/>
          </g>
        </g>
      </g>
      <g id="Group_10476" data-name="Group 10476" transform="translate(27.589 126.587)">
        <g id="Group_10475" data-name="Group 10475">
          <path id="Path_32940" data-name="Path 32940" d="M251.934,204.7l-3.583-2.069-.042,14.99,13.045,7.531.012-4.086.031-10.9Z" transform="translate(-245.962 -201.28)" fill="#fff"/>
          <g id="Group_10473" data-name="Group 10473" transform="translate(0.002)">
            <path id="Path_32941" data-name="Path 32941" d="M246.973,201.839l2.347,1.353-.043,14.99-2.347,1.373Z" transform="translate(-246.931 -201.839)" fill="#41b8e4"/>
          </g>
          <g id="Group_10474" data-name="Group 10474" transform="translate(0 16.345)">
            <path id="Path_32942" data-name="Path 32942" d="M246.929,212.816l2.347-1.373,13.045,7.532V221.7Z" transform="translate(-246.929 -211.443)" fill="#86cce8"/>
          </g>
        </g>
      </g>
      <g id="Group_10480" data-name="Group 10480" transform="translate(47.638 138.021)">
        <g id="Group_10479" data-name="Group 10479">
          <path id="Path_32943" data-name="Path 32943" d="M263.714,211.423l-3.583-2.069-.043,14.99,13.045,7.532.012-4.086.031-10.9Z" transform="translate(-257.742 -207.999)" fill="#fff"/>
          <g id="Group_10477" data-name="Group 10477" transform="translate(0.002)">
            <path id="Path_32944" data-name="Path 32944" d="M258.754,208.558l2.347,1.353-.043,14.99-2.347,1.373Z" transform="translate(-258.711 -208.558)" fill="#41b8e4"/>
          </g>
          <g id="Group_10478" data-name="Group 10478" transform="translate(0 16.345)">
            <path id="Path_32945" data-name="Path 32945" d="M258.71,219.534l2.347-1.373,13.045,7.532v2.728Z" transform="translate(-258.71 -218.162)" fill="#86cce8"/>
          </g>
        </g>
      </g>
      <g id="Group_10484" data-name="Group 10484" transform="translate(7.536 143.227)">
        <g id="Group_10483" data-name="Group 10483">
          <path id="Path_32946" data-name="Path 32946" d="M240.151,214.482l-3.583-2.069-.043,14.99,13.045,7.531.012-4.086.031-10.9Z" transform="translate(-234.179 -211.058)" fill="#fff"/>
          <g id="Group_10481" data-name="Group 10481" transform="translate(0.003)">
            <path id="Path_32947" data-name="Path 32947" d="M235.19,211.617l2.347,1.353L237.5,227.96l-2.347,1.373Z" transform="translate(-235.148 -211.617)" fill="#41b8e4"/>
          </g>
          <g id="Group_10482" data-name="Group 10482" transform="translate(0 16.345)">
            <path id="Path_32948" data-name="Path 32948" d="M235.146,222.594l2.348-1.373,13.045,7.532v2.728Z" transform="translate(-235.146 -221.221)" fill="#86cce8"/>
          </g>
        </g>
      </g>
      <g id="Group_10488" data-name="Group 10488" transform="translate(27.589 154.727)">
        <g id="Group_10487" data-name="Group 10487">
          <path id="Path_32949" data-name="Path 32949" d="M251.934,221.239l-3.583-2.069-.042,14.99,13.045,7.532.012-4.086.031-10.9Z" transform="translate(-245.962 -217.815)" fill="#fff"/>
          <g id="Group_10485" data-name="Group 10485" transform="translate(0.002)">
            <path id="Path_32950" data-name="Path 32950" d="M246.973,218.374l2.347,1.353-.043,14.99-2.347,1.373Z" transform="translate(-246.931 -218.374)" fill="#41b8e4"/>
          </g>
          <g id="Group_10486" data-name="Group 10486" transform="translate(0 16.345)">
            <path id="Path_32951" data-name="Path 32951" d="M246.929,229.351l2.347-1.373,13.045,7.532v2.728Z" transform="translate(-246.929 -227.978)" fill="#86cce8"/>
          </g>
        </g>
      </g>
      <g id="Group_10492" data-name="Group 10492" transform="translate(47.638 166.161)">
        <g id="Group_10491" data-name="Group 10491">
          <path id="Path_32952" data-name="Path 32952" d="M263.714,227.958l-3.583-2.069-.043,14.99,13.045,7.531.012-4.086.031-10.9Z" transform="translate(-257.742 -224.533)" fill="#fff"/>
          <g id="Group_10489" data-name="Group 10489" transform="translate(0.002)">
            <path id="Path_32953" data-name="Path 32953" d="M258.754,225.092l2.347,1.353-.043,14.989-2.347,1.373Z" transform="translate(-258.711 -225.092)" fill="#41b8e4"/>
          </g>
          <g id="Group_10490" data-name="Group 10490" transform="translate(0 16.345)">
            <path id="Path_32954" data-name="Path 32954" d="M258.71,236.069l2.347-1.373,13.045,7.532v2.728Z" transform="translate(-258.71 -234.697)" fill="#86cce8"/>
          </g>
        </g>
      </g>
      <g id="Group_10496" data-name="Group 10496" transform="translate(7.536 171.368)">
        <g id="Group_10495" data-name="Group 10495">
          <path id="Path_32955" data-name="Path 32955" d="M240.151,231.017l-3.583-2.069-.043,14.99,13.045,7.532.012-4.086.031-10.9Z" transform="translate(-234.179 -227.593)" fill="#fff"/>
          <g id="Group_10493" data-name="Group 10493" transform="translate(0.003)">
            <path id="Path_32956" data-name="Path 32956" d="M235.19,228.152l2.347,1.353-.043,14.99-2.347,1.373Z" transform="translate(-235.148 -228.152)" fill="#41b8e4"/>
          </g>
          <g id="Group_10494" data-name="Group 10494" transform="translate(0 16.345)">
            <path id="Path_32957" data-name="Path 32957" d="M235.146,239.129l2.348-1.373,13.045,7.532v2.728Z" transform="translate(-235.146 -237.756)" fill="#86cce8"/>
          </g>
        </g>
      </g>
      <g id="Group_10500" data-name="Group 10500" transform="translate(27.589 182.867)">
        <g id="Group_10499" data-name="Group 10499">
          <path id="Path_32958" data-name="Path 32958" d="M251.934,237.774l-3.583-2.069-.042,14.99,13.045,7.531.012-4.086.031-10.9Z" transform="translate(-245.962 -234.35)" fill="#fff"/>
          <g id="Group_10497" data-name="Group 10497" transform="translate(0.002)">
            <path id="Path_32959" data-name="Path 32959" d="M246.973,234.909l2.347,1.353-.043,14.99-2.347,1.373Z" transform="translate(-246.931 -234.909)" fill="#41b8e4"/>
          </g>
          <g id="Group_10498" data-name="Group 10498" transform="translate(0 16.345)">
            <path id="Path_32960" data-name="Path 32960" d="M246.929,245.886l2.347-1.373,13.045,7.532v2.728Z" transform="translate(-246.929 -244.513)" fill="#86cce8"/>
          </g>
        </g>
      </g>
      <g id="Group_10504" data-name="Group 10504" transform="translate(47.638 194.302)">
        <g id="Group_10503" data-name="Group 10503">
          <path id="Path_32961" data-name="Path 32961" d="M263.714,244.493l-3.583-2.069-.043,14.99,13.045,7.532.012-4.086.031-10.9Z" transform="translate(-257.742 -241.069)" fill="#fff"/>
          <g id="Group_10501" data-name="Group 10501" transform="translate(0.002)">
            <path id="Path_32962" data-name="Path 32962" d="M258.754,241.628l2.347,1.353-.043,14.99-2.347,1.373Z" transform="translate(-258.711 -241.628)" fill="#41b8e4"/>
          </g>
          <g id="Group_10502" data-name="Group 10502" transform="translate(0 16.345)">
            <path id="Path_32963" data-name="Path 32963" d="M258.71,252.6l2.347-1.373,13.045,7.532v2.728Z" transform="translate(-258.71 -251.232)" fill="#86cce8"/>
          </g>
        </g>
      </g>
      <g id="Group_10508" data-name="Group 10508" transform="translate(7.536 199.508)">
        <g id="Group_10507" data-name="Group 10507">
          <path id="Path_32964" data-name="Path 32964" d="M240.151,247.552l-3.583-2.069-.043,14.99L249.57,268l.012-4.086.031-10.9Z" transform="translate(-234.179 -244.128)" fill="#fff"/>
          <g id="Group_10505" data-name="Group 10505" transform="translate(0.003)">
            <path id="Path_32965" data-name="Path 32965" d="M235.19,244.687l2.347,1.353-.043,14.989-2.347,1.373Z" transform="translate(-235.148 -244.687)" fill="#41b8e4"/>
          </g>
          <g id="Group_10506" data-name="Group 10506" transform="translate(0 16.345)">
            <path id="Path_32966" data-name="Path 32966" d="M235.146,255.664l2.348-1.373,13.045,7.532v2.728Z" transform="translate(-235.146 -254.291)" fill="#86cce8"/>
          </g>
        </g>
      </g>
      <g id="Group_10512" data-name="Group 10512" transform="translate(27.589 211.008)">
        <g id="Group_10511" data-name="Group 10511">
          <path id="Path_32967" data-name="Path 32967" d="M251.934,254.309l-3.583-2.069-.042,14.99,13.045,7.531.012-4.086.031-10.9Z" transform="translate(-245.962 -250.885)" fill="#fff"/>
          <g id="Group_10509" data-name="Group 10509" transform="translate(0.002)">
            <path id="Path_32968" data-name="Path 32968" d="M246.973,251.444l2.347,1.353-.043,14.99-2.347,1.373Z" transform="translate(-246.931 -251.444)" fill="#41b8e4"/>
          </g>
          <g id="Group_10510" data-name="Group 10510" transform="translate(0 16.345)">
            <path id="Path_32969" data-name="Path 32969" d="M246.929,262.421l2.347-1.373,13.045,7.532v2.728Z" transform="translate(-246.929 -261.048)" fill="#86cce8"/>
          </g>
        </g>
      </g>
      <g id="Group_10516" data-name="Group 10516" transform="translate(47.638 222.442)">
        <g id="Group_10515" data-name="Group 10515">
          <path id="Path_32970" data-name="Path 32970" d="M263.714,261.028l-3.583-2.069-.043,14.99,13.045,7.531.012-4.086.031-10.9Z" transform="translate(-257.742 -257.603)" fill="#fff"/>
          <g id="Group_10513" data-name="Group 10513" transform="translate(0.002)">
            <path id="Path_32971" data-name="Path 32971" d="M258.754,258.162l2.347,1.353-.043,14.989-2.347,1.373Z" transform="translate(-258.711 -258.162)" fill="#41b8e4"/>
          </g>
          <g id="Group_10514" data-name="Group 10514" transform="translate(0 16.345)">
            <path id="Path_32972" data-name="Path 32972" d="M258.71,269.139l2.347-1.373L274.1,275.3v2.728Z" transform="translate(-258.71 -267.766)" fill="#86cce8"/>
          </g>
        </g>
      </g>
      <g id="Group_10520" data-name="Group 10520" transform="translate(118.17 86.947)">
        <g id="Group_10519" data-name="Group 10519">
          <path id="Path_32973" data-name="Path 32973" d="M309.615,181.412l3.583-2.069.043,14.99L300.2,201.864l-.012-4.086-.031-10.9Z" transform="translate(-300.153 -177.988)" fill="#fff"/>
          <g id="Group_10517" data-name="Group 10517" transform="translate(13.042)">
            <path id="Path_32974" data-name="Path 32974" d="M310.164,178.547l-2.347,1.353.042,14.989,2.348,1.373Z" transform="translate(-307.817 -178.547)" fill="#41b8e4"/>
          </g>
          <g id="Group_10518" data-name="Group 10518" transform="translate(0.042 16.345)">
            <path id="Path_32975" data-name="Path 32975" d="M315.57,189.524l-2.347-1.373-13.045,7.531v2.728Z" transform="translate(-300.178 -188.151)" fill="#86cce8"/>
          </g>
        </g>
      </g>
      <g id="Group_10524" data-name="Group 10524" transform="translate(98.116 98.446)">
        <g id="Group_10523" data-name="Group 10523">
          <path id="Path_32976" data-name="Path 32976" d="M297.832,188.169l3.583-2.069.043,14.99-13.045,7.532-.012-4.086-.031-10.9Z" transform="translate(-288.37 -184.745)" fill="#fff"/>
          <g id="Group_10521" data-name="Group 10521" transform="translate(13.042)">
            <path id="Path_32977" data-name="Path 32977" d="M298.381,185.3l-2.347,1.353.043,14.99,2.347,1.373Z" transform="translate(-296.034 -185.304)" fill="#41b8e4"/>
          </g>
          <g id="Group_10522" data-name="Group 10522" transform="translate(0.041 16.345)">
            <path id="Path_32978" data-name="Path 32978" d="M303.787,196.281l-2.347-1.373-13.045,7.532v2.728Z" transform="translate(-288.395 -194.908)" fill="#86cce8"/>
          </g>
        </g>
      </g>
      <g id="Group_10528" data-name="Group 10528" transform="translate(78.068 109.881)">
        <g id="Group_10527" data-name="Group 10527">
          <path id="Path_32979" data-name="Path 32979" d="M286.052,194.888l3.583-2.069.043,14.99-13.045,7.531-.012-4.086-.031-10.9Z" transform="translate(-276.59 -191.464)" fill="#fff"/>
          <g id="Group_10525" data-name="Group 10525" transform="translate(13.042)">
            <path id="Path_32980" data-name="Path 32980" d="M286.6,192.023l-2.347,1.353.042,14.989,2.347,1.373Z" transform="translate(-284.253 -192.023)" fill="#41b8e4"/>
          </g>
          <g id="Group_10526" data-name="Group 10526" transform="translate(0.041 16.345)">
            <path id="Path_32981" data-name="Path 32981" d="M292.007,203l-2.347-1.373-13.045,7.531v2.728Z" transform="translate(-276.614 -201.627)" fill="#86cce8"/>
          </g>
        </g>
      </g>
      <g id="Group_10532" data-name="Group 10532" transform="translate(7.536 59.043)">
        <g id="Group_10531" data-name="Group 10531">
          <path id="Path_32982" data-name="Path 32982" d="M240.151,165.016l-3.583-2.069-.043,14.99,13.045,7.532.012-4.086.031-10.9Z" transform="translate(-234.179 -161.592)" fill="#fff"/>
          <g id="Group_10529" data-name="Group 10529" transform="translate(0.003)">
            <path id="Path_32983" data-name="Path 32983" d="M235.19,162.151l2.347,1.353-.043,14.99-2.347,1.373Z" transform="translate(-235.148 -162.151)" fill="#41b8e4"/>
          </g>
          <g id="Group_10530" data-name="Group 10530" transform="translate(0 16.345)">
            <path id="Path_32984" data-name="Path 32984" d="M235.146,173.128l2.348-1.373,13.045,7.531v2.728Z" transform="translate(-235.146 -171.755)" fill="#86cce8"/>
          </g>
        </g>
      </g>
      <g id="Group_10536" data-name="Group 10536" transform="translate(27.589 70.543)">
        <g id="Group_10535" data-name="Group 10535">
          <path id="Path_32985" data-name="Path 32985" d="M251.934,171.773l-3.583-2.069-.042,14.99,13.045,7.531.012-4.086.031-10.9Z" transform="translate(-245.962 -168.349)" fill="#fff"/>
          <g id="Group_10533" data-name="Group 10533" transform="translate(0.002)">
            <path id="Path_32986" data-name="Path 32986" d="M246.973,168.908l2.347,1.353-.043,14.989-2.347,1.373Z" transform="translate(-246.931 -168.908)" fill="#41b8e4"/>
          </g>
          <g id="Group_10534" data-name="Group 10534" transform="translate(0 16.345)">
            <path id="Path_32987" data-name="Path 32987" d="M246.929,179.885l2.347-1.373,13.045,7.532v2.728Z" transform="translate(-246.929 -178.512)" fill="#86cce8"/>
          </g>
        </g>
      </g>
      <g id="Group_10540" data-name="Group 10540" transform="translate(47.638 81.977)">
        <g id="Group_10539" data-name="Group 10539">
          <path id="Path_32988" data-name="Path 32988" d="M263.714,178.492l-3.583-2.069-.043,14.99,13.045,7.532.012-4.086.031-10.9Z" transform="translate(-257.742 -175.068)" fill="#fff"/>
          <g id="Group_10537" data-name="Group 10537" transform="translate(0.002)">
            <path id="Path_32989" data-name="Path 32989" d="M258.754,175.627l2.347,1.353-.043,14.99-2.347,1.373Z" transform="translate(-258.711 -175.627)" fill="#41b8e4"/>
          </g>
          <g id="Group_10538" data-name="Group 10538" transform="translate(0 16.345)">
            <path id="Path_32990" data-name="Path 32990" d="M258.71,186.6l2.347-1.373,13.045,7.531v2.728Z" transform="translate(-258.71 -185.231)" fill="#86cce8"/>
          </g>
        </g>
      </g>
      <g id="Group_10544" data-name="Group 10544" transform="translate(118.17 59.043)">
        <g id="Group_10543" data-name="Group 10543">
          <path id="Path_32991" data-name="Path 32991" d="M309.615,165.016l3.583-2.069.043,14.99L300.2,185.469l-.012-4.086-.031-10.9Z" transform="translate(-300.153 -161.592)" fill="#fff"/>
          <g id="Group_10541" data-name="Group 10541" transform="translate(13.042)">
            <path id="Path_32992" data-name="Path 32992" d="M310.164,162.151l-2.347,1.353.042,14.99,2.348,1.373Z" transform="translate(-307.817 -162.151)" fill="#41b8e4"/>
          </g>
          <g id="Group_10542" data-name="Group 10542" transform="translate(0.042 16.345)">
            <path id="Path_32993" data-name="Path 32993" d="M315.57,173.128l-2.347-1.373-13.045,7.531v2.728Z" transform="translate(-300.178 -171.755)" fill="#86cce8"/>
          </g>
        </g>
      </g>
      <g id="Group_10548" data-name="Group 10548" transform="translate(98.116 70.543)">
        <g id="Group_10547" data-name="Group 10547">
          <path id="Path_32994" data-name="Path 32994" d="M297.832,171.773l3.583-2.069.043,14.99-13.045,7.531-.012-4.086-.031-10.9Z" transform="translate(-288.37 -168.349)" fill="#fff"/>
          <g id="Group_10545" data-name="Group 10545" transform="translate(13.042)">
            <path id="Path_32995" data-name="Path 32995" d="M298.381,168.908l-2.347,1.353.043,14.989,2.347,1.373Z" transform="translate(-296.034 -168.908)" fill="#41b8e4"/>
          </g>
          <g id="Group_10546" data-name="Group 10546" transform="translate(0.041 16.345)">
            <path id="Path_32996" data-name="Path 32996" d="M303.787,179.885l-2.347-1.373-13.045,7.532v2.728Z" transform="translate(-288.395 -178.512)" fill="#86cce8"/>
          </g>
        </g>
      </g>
      <g id="Group_10552" data-name="Group 10552" transform="translate(78.068 81.977)">
        <g id="Group_10551" data-name="Group 10551">
          <path id="Path_32997" data-name="Path 32997" d="M286.052,178.492l3.583-2.069.043,14.99-13.045,7.532-.012-4.086-.031-10.9Z" transform="translate(-276.59 -175.068)" fill="#fff"/>
          <g id="Group_10549" data-name="Group 10549" transform="translate(13.042)">
            <path id="Path_32998" data-name="Path 32998" d="M286.6,175.627l-2.347,1.353.042,14.99,2.347,1.373Z" transform="translate(-284.253 -175.627)" fill="#41b8e4"/>
          </g>
          <g id="Group_10550" data-name="Group 10550" transform="translate(0.041 16.345)">
            <path id="Path_32999" data-name="Path 32999" d="M292.007,186.6l-2.347-1.373-13.045,7.531v2.728Z" transform="translate(-276.614 -185.231)" fill="#86cce8"/>
          </g>
        </g>
      </g>
      <g id="Group_10556" data-name="Group 10556" transform="translate(118.17 115.087)">
        <g id="Group_10555" data-name="Group 10555">
          <path id="Path_33000" data-name="Path 33000" d="M309.615,197.947l3.583-2.069.043,14.99L300.2,218.4l-.012-4.086-.031-10.9Z" transform="translate(-300.153 -194.523)" fill="#fff"/>
          <g id="Group_10553" data-name="Group 10553" transform="translate(13.042)">
            <path id="Path_33001" data-name="Path 33001" d="M310.164,195.082l-2.347,1.353.042,14.99,2.348,1.373Z" transform="translate(-307.817 -195.082)" fill="#41b8e4"/>
          </g>
          <g id="Group_10554" data-name="Group 10554" transform="translate(0.042 16.345)">
            <path id="Path_33002" data-name="Path 33002" d="M315.57,206.059l-2.347-1.373-13.045,7.532v2.728Z" transform="translate(-300.178 -204.686)" fill="#86cce8"/>
          </g>
        </g>
      </g>
      <g id="Group_10560" data-name="Group 10560" transform="translate(98.116 126.587)">
        <g id="Group_10559" data-name="Group 10559">
          <path id="Path_33003" data-name="Path 33003" d="M297.832,204.7l3.583-2.069.043,14.99-13.045,7.531-.012-4.086-.031-10.9Z" transform="translate(-288.37 -201.28)" fill="#fff"/>
          <g id="Group_10557" data-name="Group 10557" transform="translate(13.042)">
            <path id="Path_33004" data-name="Path 33004" d="M298.381,201.839l-2.347,1.353.043,14.99,2.347,1.373Z" transform="translate(-296.034 -201.839)" fill="#41b8e4"/>
          </g>
          <g id="Group_10558" data-name="Group 10558" transform="translate(0.041 16.345)">
            <path id="Path_33005" data-name="Path 33005" d="M303.787,212.816l-2.347-1.373-13.045,7.532V221.7Z" transform="translate(-288.395 -211.443)" fill="#86cce8"/>
          </g>
        </g>
      </g>
      <g id="Group_10564" data-name="Group 10564" transform="translate(78.068 138.021)">
        <g id="Group_10563" data-name="Group 10563">
          <path id="Path_33006" data-name="Path 33006" d="M286.052,211.423l3.583-2.069.043,14.99-13.045,7.532-.012-4.086-.031-10.9Z" transform="translate(-276.59 -207.999)" fill="#fff"/>
          <g id="Group_10561" data-name="Group 10561" transform="translate(13.042)">
            <path id="Path_33007" data-name="Path 33007" d="M286.6,208.558l-2.347,1.353.042,14.99,2.347,1.373Z" transform="translate(-284.253 -208.558)" fill="#41b8e4"/>
          </g>
          <g id="Group_10562" data-name="Group 10562" transform="translate(0.041 16.345)">
            <path id="Path_33008" data-name="Path 33008" d="M292.007,219.534l-2.347-1.373-13.045,7.532v2.728Z" transform="translate(-276.614 -218.162)" fill="#86cce8"/>
          </g>
        </g>
      </g>
      <g id="Group_10568" data-name="Group 10568" transform="translate(118.17 143.227)">
        <g id="Group_10567" data-name="Group 10567">
          <path id="Path_33009" data-name="Path 33009" d="M309.615,214.482l3.583-2.069.043,14.99L300.2,234.934l-.012-4.086-.031-10.9Z" transform="translate(-300.153 -211.058)" fill="#fff"/>
          <g id="Group_10565" data-name="Group 10565" transform="translate(13.042)">
            <path id="Path_33010" data-name="Path 33010" d="M310.164,211.617l-2.347,1.353.042,14.989,2.348,1.373Z" transform="translate(-307.817 -211.617)" fill="#41b8e4"/>
          </g>
          <g id="Group_10566" data-name="Group 10566" transform="translate(0.042 16.345)">
            <path id="Path_33011" data-name="Path 33011" d="M315.57,222.594l-2.347-1.373-13.045,7.532v2.728Z" transform="translate(-300.178 -221.221)" fill="#86cce8"/>
          </g>
        </g>
      </g>
      <g id="Group_10572" data-name="Group 10572" transform="translate(98.116 154.727)">
        <g id="Group_10571" data-name="Group 10571">
          <path id="Path_33012" data-name="Path 33012" d="M297.832,221.239l3.583-2.069.043,14.99-13.045,7.532-.012-4.086-.031-10.9Z" transform="translate(-288.37 -217.815)" fill="#fff"/>
          <g id="Group_10569" data-name="Group 10569" transform="translate(13.042)">
            <path id="Path_33013" data-name="Path 33013" d="M298.381,218.374l-2.347,1.353.043,14.99,2.347,1.373Z" transform="translate(-296.034 -218.374)" fill="#41b8e4"/>
          </g>
          <g id="Group_10570" data-name="Group 10570" transform="translate(0.041 16.345)">
            <path id="Path_33014" data-name="Path 33014" d="M303.787,229.351l-2.347-1.373-13.045,7.532v2.728Z" transform="translate(-288.395 -227.978)" fill="#86cce8"/>
          </g>
        </g>
      </g>
      <g id="Group_10576" data-name="Group 10576" transform="translate(78.068 166.161)">
        <g id="Group_10575" data-name="Group 10575">
          <path id="Path_33015" data-name="Path 33015" d="M286.052,227.958l3.583-2.069.043,14.99-13.045,7.531-.012-4.086-.031-10.9Z" transform="translate(-276.59 -224.533)" fill="#fff"/>
          <g id="Group_10573" data-name="Group 10573" transform="translate(13.042)">
            <path id="Path_33016" data-name="Path 33016" d="M286.6,225.092l-2.347,1.353.042,14.989,2.347,1.373Z" transform="translate(-284.253 -225.092)" fill="#41b8e4"/>
          </g>
          <g id="Group_10574" data-name="Group 10574" transform="translate(0.041 16.345)">
            <path id="Path_33017" data-name="Path 33017" d="M292.007,236.069l-2.347-1.373-13.045,7.532v2.728Z" transform="translate(-276.614 -234.697)" fill="#86cce8"/>
          </g>
        </g>
      </g>
      <g id="Group_10580" data-name="Group 10580" transform="translate(118.17 171.368)">
        <g id="Group_10579" data-name="Group 10579">
          <path id="Path_33018" data-name="Path 33018" d="M309.615,231.017l3.583-2.069.043,14.99L300.2,251.469l-.012-4.086-.031-10.9Z" transform="translate(-300.153 -227.593)" fill="#fff"/>
          <g id="Group_10577" data-name="Group 10577" transform="translate(13.042)">
            <path id="Path_33019" data-name="Path 33019" d="M310.164,228.152l-2.347,1.353.042,14.99,2.348,1.373Z" transform="translate(-307.817 -228.152)" fill="#41b8e4"/>
          </g>
          <g id="Group_10578" data-name="Group 10578" transform="translate(0.042 16.345)">
            <path id="Path_33020" data-name="Path 33020" d="M315.57,239.129l-2.347-1.373-13.045,7.532v2.728Z" transform="translate(-300.178 -237.756)" fill="#86cce8"/>
          </g>
        </g>
      </g>
      <g id="Group_10584" data-name="Group 10584" transform="translate(98.116 182.867)">
        <g id="Group_10583" data-name="Group 10583">
          <path id="Path_33021" data-name="Path 33021" d="M297.832,237.774l3.583-2.069.043,14.99-13.045,7.531-.012-4.086-.031-10.9Z" transform="translate(-288.37 -234.35)" fill="#fff"/>
          <g id="Group_10581" data-name="Group 10581" transform="translate(13.042)">
            <path id="Path_33022" data-name="Path 33022" d="M298.381,234.909l-2.347,1.353.043,14.99,2.347,1.373Z" transform="translate(-296.034 -234.909)" fill="#41b8e4"/>
          </g>
          <g id="Group_10582" data-name="Group 10582" transform="translate(0.041 16.345)">
            <path id="Path_33023" data-name="Path 33023" d="M303.787,245.886l-2.347-1.373-13.045,7.532v2.728Z" transform="translate(-288.395 -244.513)" fill="#86cce8"/>
          </g>
        </g>
      </g>
      <g id="Group_10588" data-name="Group 10588" transform="translate(78.068 194.302)">
        <g id="Group_10587" data-name="Group 10587">
          <path id="Path_33024" data-name="Path 33024" d="M286.052,244.493l3.583-2.069.043,14.99-13.045,7.532-.012-4.086-.031-10.9Z" transform="translate(-276.59 -241.069)" fill="#fff"/>
          <g id="Group_10585" data-name="Group 10585" transform="translate(13.042)">
            <path id="Path_33025" data-name="Path 33025" d="M286.6,241.628l-2.347,1.353.042,14.99,2.347,1.373Z" transform="translate(-284.253 -241.628)" fill="#41b8e4"/>
          </g>
          <g id="Group_10586" data-name="Group 10586" transform="translate(0.041 16.345)">
            <path id="Path_33026" data-name="Path 33026" d="M292.007,252.6l-2.347-1.373-13.045,7.532v2.728Z" transform="translate(-276.614 -251.232)" fill="#86cce8"/>
          </g>
        </g>
      </g>
      <g id="Group_10592" data-name="Group 10592" transform="translate(118.17 199.508)">
        <g id="Group_10591" data-name="Group 10591">
          <path id="Path_33027" data-name="Path 33027" d="M309.615,247.552l3.583-2.069.043,14.99L300.2,268l-.012-4.086-.031-10.9Z" transform="translate(-300.153 -244.128)" fill="#95dbe5"/>
          <g id="Group_10589" data-name="Group 10589" transform="translate(13.042)">
            <path id="Path_33028" data-name="Path 33028" d="M310.164,244.687l-2.347,1.353.042,14.989,2.348,1.373Z" transform="translate(-307.817 -244.687)" fill="#73a9b1"/>
          </g>
          <g id="Group_10590" data-name="Group 10590" transform="translate(0.042 16.345)">
            <path id="Path_33029" data-name="Path 33029" d="M315.57,255.664l-2.347-1.373-13.045,7.532v2.728Z" transform="translate(-300.178 -254.291)" fill="#80bdc5"/>
          </g>
        </g>
      </g>
      <g id="Group_10596" data-name="Group 10596" transform="translate(98.116 211.008)">
        <g id="Group_10595" data-name="Group 10595">
          <path id="Path_33030" data-name="Path 33030" d="M297.832,254.309l3.583-2.069.043,14.99-13.045,7.531-.012-4.086-.031-10.9Z" transform="translate(-288.37 -250.885)" fill="#fff"/>
          <g id="Group_10593" data-name="Group 10593" transform="translate(13.042)">
            <path id="Path_33031" data-name="Path 33031" d="M298.381,251.444l-2.347,1.353.043,14.99,2.347,1.373Z" transform="translate(-296.034 -251.444)" fill="#41b8e4"/>
          </g>
          <g id="Group_10594" data-name="Group 10594" transform="translate(0.041 16.345)">
            <path id="Path_33032" data-name="Path 33032" d="M303.787,262.421l-2.347-1.373-13.045,7.532v2.728Z" transform="translate(-288.395 -261.048)" fill="#86cce8"/>
          </g>
        </g>
      </g>
      <g id="Group_10600" data-name="Group 10600" transform="translate(78.068 222.442)">
        <g id="Group_10599" data-name="Group 10599">
          <path id="Path_33033" data-name="Path 33033" d="M286.052,261.028l3.583-2.069.043,14.99-13.045,7.531-.012-4.086-.031-10.9Z" transform="translate(-276.59 -257.603)" fill="#fff"/>
          <g id="Group_10597" data-name="Group 10597" transform="translate(13.042)">
            <path id="Path_33034" data-name="Path 33034" d="M286.6,258.162l-2.347,1.353.042,14.989,2.347,1.373Z" transform="translate(-284.253 -258.162)" fill="#41b8e4"/>
          </g>
          <g id="Group_10598" data-name="Group 10598" transform="translate(0.041 16.345)">
            <path id="Path_33035" data-name="Path 33035" d="M292.007,269.139l-2.347-1.373L276.614,275.3v2.728Z" transform="translate(-276.614 -267.766)" fill="#86cce8"/>
          </g>
        </g>
      </g>
    </g>
    <g id="Group_10921" data-name="Group 10921" transform="translate(17136.154 7817.934)">
      <g id="Group_10620" data-name="Group 10620" transform="translate(15.969 32.287)">
        <g id="Group_10619" data-name="Group 10619">
          <path id="Path_33046" data-name="Path 33046" d="M304.646,261.995a1.2,1.2,0,0,0,.712.989,3.737,3.737,0,0,0,3.4-.006,1.192,1.192,0,0,0,.7-.981l-.007,13.6a1.2,1.2,0,0,1-.7.981,3.733,3.733,0,0,1-3.4,0,1.2,1.2,0,0,1-.712-.988Z" transform="translate(-304.639 -260.605)" fill="#fd8257"/>
          <g id="Group_10618" data-name="Group 10618" transform="translate(0.007)">
            <path id="Path_33047" data-name="Path 33047" d="M305.356,263.382a3.737,3.737,0,0,0,3.4-.006,1.041,1.041,0,0,0-.016-1.971,3.75,3.75,0,0,0-3.4.01A1.039,1.039,0,0,0,305.356,263.382Z" transform="translate(-304.644 -261.003)" fill="#d36c5e"/>
          </g>
        </g>
      </g>
      <path id="Path_33048" data-name="Path 33048" d="M293.241,259.219a7.087,7.087,0,0,1,3.728-6.241v0a5.451,5.451,0,0,1,4.182-7.854c0-.025,0-.049,0-.076a7.083,7.083,0,0,1,13.2-3.58,5.483,5.483,0,0,1,9.311,5.495,8.084,8.084,0,0,1,2.956,14.624,5.433,5.433,0,0,1,.2,1.391,5.5,5.5,0,0,1-4.235,5.348,7.066,7.066,0,0,1-9.838,4.375,7.066,7.066,0,0,1-8.93-2.438c-.092-.056-.188-.111-.28-.17a5.436,5.436,0,0,1-6.7-4.713A7.08,7.08,0,0,1,293.241,259.219Z" transform="translate(-293.241 -237.957)" fill="#5cad5c"/>
    </g>
    <g id="Group_10922" data-name="Group 10922" transform="translate(17160.158 7827.084)">
      <g id="Group_10624" data-name="Group 10624" transform="translate(15.969 32.288)">
        <g id="Group_10623" data-name="Group 10623">
          <path id="Path_33049" data-name="Path 33049" d="M321.78,268.527a1.2,1.2,0,0,0,.712.989,3.742,3.742,0,0,0,3.4-.006,1.2,1.2,0,0,0,.7-.981l-.007,13.6a1.2,1.2,0,0,1-.7.981,3.741,3.741,0,0,1-3.4,0,1.2,1.2,0,0,1-.712-.989Z" transform="translate(-321.773 -267.136)" fill="#fd8257"/>
          <g id="Group_10622" data-name="Group 10622" transform="translate(0.007)">
            <path id="Path_33050" data-name="Path 33050" d="M322.49,269.914a3.741,3.741,0,0,0,3.4-.006,1.041,1.041,0,0,0-.015-1.971,3.741,3.741,0,0,0-3.4.01A1.039,1.039,0,0,0,322.49,269.914Z" transform="translate(-321.778 -267.534)" fill="#d36c5e"/>
          </g>
        </g>
      </g>
      <path id="Path_33051" data-name="Path 33051" d="M310.375,265.75a7.085,7.085,0,0,1,3.727-6.24v0a5.451,5.451,0,0,1,4.181-7.854c0-.025,0-.05,0-.076a7.083,7.083,0,0,1,13.2-3.581,5.483,5.483,0,0,1,9.311,5.495,8.086,8.086,0,0,1,2.956,14.625,5.42,5.42,0,0,1,.2,1.39,5.5,5.5,0,0,1-4.234,5.349,7.07,7.07,0,0,1-9.838,4.375,7.072,7.072,0,0,1-8.93-2.438c-.092-.057-.188-.112-.28-.171a5.436,5.436,0,0,1-6.7-4.712A7.082,7.082,0,0,1,310.375,265.75Z" transform="translate(-310.375 -244.488)" fill="#66bb68"/>
    </g>
    <g id="Group_10912" data-name="Group 10912" transform="translate(17036.652 7623.466)">
      <path id="Path_33036" data-name="Path 33036" d="M245.617,141.37a.762.762,0,0,0,.451.627,2.369,2.369,0,0,0,2.159,0,.758.758,0,0,0,.443-.622l0,8.636a.762.762,0,0,1-.443.622,2.378,2.378,0,0,1-2.159,0,.764.764,0,0,1-.451-.627Z" transform="translate(-242.21 -115.258)" fill="#1d546d"/>
      <path id="Path_33037" data-name="Path 33037" d="M279.992,160.722a.765.765,0,0,0,.452.628,2.371,2.371,0,0,0,2.157,0,.755.755,0,0,0,.443-.622l0,8.636a.76.76,0,0,1-.442.622,2.378,2.378,0,0,1-2.159,0,.766.766,0,0,1-.452-.628Z" transform="translate(-224.401 -105.232)" fill="#1d546d"/>
      <g id="Group_10602" data-name="Group 10602" transform="translate(56.593 32.273)">
        <path id="Path_33038" data-name="Path 33038" d="M285.482,145.429,286,170.69l-4.831,2.715-.522-25.262Z" transform="translate(-280.651 -145.429)" fill="#d1e9f5"/>
      </g>
      <g id="Group_10603" data-name="Group 10603" transform="translate(0 2.715)">
        <path id="Path_33039" data-name="Path 33039" d="M300.486,183.493,243.893,151.22l-.522-25.262,56.593,32.273Z" transform="translate(-243.371 -125.958)" fill="#f8fdff"/>
      </g>
      <g id="Group_10604" data-name="Group 10604">
        <path id="Path_33040" data-name="Path 33040" d="M299.964,159.158l-56.593-32.273,4.831-2.715,56.593,32.273Z" transform="translate(-243.371 -124.169)" fill="#c1deea"/>
      </g>
      <g id="Group_10615" data-name="Group 10615" transform="translate(3.233 13.405)">
        <g id="Group_10608" data-name="Group 10608" transform="translate(0)">
          <g id="Group_10607" data-name="Group 10607">
            <path id="Path_33042" data-name="Path 33042" d="M262.636,145.609c.015.519.032,1.069.03,1.629s-.021,1.079-.039,1.559a4.292,4.292,0,0,1-.389,1.668,2.163,2.163,0,0,1-.952,1,2.555,2.555,0,0,1-1.507.172,6.124,6.124,0,0,1-2.028-.8,9.74,9.74,0,0,1-2.034-1.545,10.711,10.711,0,0,1-1.492-1.9,9.713,9.713,0,0,1-.944-2.095,8.346,8.346,0,0,1-.376-2.11c-.017-.5-.024-1.035-.021-1.594s.011-1.095.03-1.594a4.287,4.287,0,0,1,.387-1.668,2.056,2.056,0,0,1,.953-.991,2.629,2.629,0,0,1,1.5-.176,5.8,5.8,0,0,1,2.036.785,9.487,9.487,0,0,1,2.027,1.561,10.423,10.423,0,0,1,1.5,1.908,9.239,9.239,0,0,1,.943,2.086A8.408,8.408,0,0,1,262.636,145.609Zm-2.86.732c.011-.255.02-.521.02-.8s-.006-.545-.015-.8-.015-.5-.024-.7a4.607,4.607,0,0,0-.162-.924,4.092,4.092,0,0,0-.372-.865,4.429,4.429,0,0,0-.6-.786,3.786,3.786,0,0,0-.843-.647,2.318,2.318,0,0,0-.844-.328,1.044,1.044,0,0,0-.6.094,1.028,1.028,0,0,0-.376.433,2.23,2.23,0,0,0-.158.739,6.405,6.405,0,0,0-.046.665c0,.249-.011.515-.011.785s.006.554.006.814.015.51.041.745a4.2,4.2,0,0,0,.527,1.785,3.7,3.7,0,0,0,1.442,1.433q.966.558,1.436.229a1.491,1.491,0,0,0,.553-1.163c.009-.216.018-.449.027-.7" transform="translate(-252.882 -137.126)" fill="#e41970"/>
          </g>
        </g>
        <g id="Group_10901" data-name="Group 10901" transform="translate(31.879 18.217)">
          <g id="Group_10607-2" data-name="Group 10607" transform="translate(0)">
            <path id="Path_33042-2" data-name="Path 33042" d="M262.636,145.609c.015.519.032,1.069.03,1.629s-.021,1.079-.039,1.559a4.292,4.292,0,0,1-.389,1.668,2.163,2.163,0,0,1-.952,1,2.555,2.555,0,0,1-1.507.172,6.124,6.124,0,0,1-2.028-.8,9.74,9.74,0,0,1-2.034-1.545,10.711,10.711,0,0,1-1.492-1.9,9.713,9.713,0,0,1-.944-2.095,8.346,8.346,0,0,1-.376-2.11c-.017-.5-.024-1.035-.021-1.594s.011-1.095.03-1.594a4.287,4.287,0,0,1,.387-1.668,2.056,2.056,0,0,1,.953-.991,2.629,2.629,0,0,1,1.5-.176,5.8,5.8,0,0,1,2.036.785,9.487,9.487,0,0,1,2.027,1.561,10.423,10.423,0,0,1,1.5,1.908,9.239,9.239,0,0,1,.943,2.086A8.408,8.408,0,0,1,262.636,145.609Zm-2.86.732c.011-.255.02-.521.02-.8s-.006-.545-.015-.8-.015-.5-.024-.7a4.607,4.607,0,0,0-.162-.924,4.092,4.092,0,0,0-.372-.865,4.429,4.429,0,0,0-.6-.786,3.786,3.786,0,0,0-.843-.647,2.318,2.318,0,0,0-.844-.328,1.044,1.044,0,0,0-.6.094,1.028,1.028,0,0,0-.376.433,2.23,2.23,0,0,0-.158.739,6.405,6.405,0,0,0-.046.665c0,.249-.011.515-.011.785s.006.554.006.814.015.51.041.745a4.2,4.2,0,0,0,.527,1.785,3.7,3.7,0,0,0,1.442,1.433q.966.558,1.436.229a1.491,1.491,0,0,0,.553-1.163c.009-.216.018-.449.027-.7" transform="translate(-252.882 -137.126)" fill="#e41970"/>
            <rect id="Rectangle_5289" data-name="Rectangle 5289" width="6.072" height="4.554" transform="translate(6.59 5.932) rotate(30)" fill="#e8f5fd"/>
          </g>
        </g>
        <g id="Group_10610" data-name="Group 10610" transform="translate(26.566 14.917)">
          <g id="Group_10609" data-name="Group 10609" transform="translate(0 0)">
            <path id="Path_33043" data-name="Path 33043" d="M265.045,145.834l-.026,7.666a.277.277,0,0,1-.131.264.3.3,0,0,1-.3-.032l-2.045-1.18a.88.88,0,0,1-.294-.31.869.869,0,0,1-.121-.411l.026-7.666C259.305,142.519,267.9,147.481,265.045,145.834Z" transform="translate(-261.569 -140.79)" fill="#e41970"/>
            <path id="Path_33789" data-name="Path 33789" d="M3.476,2.008,3.45,6.638A.277.277,0,0,1,3.32,6.9a.3.3,0,0,1-.3-.032L.979,5.691a.88.88,0,0,1-.295-.31A.869.869,0,0,1,.563,4.97L.589.34C-2.264-1.307,6.33,3.655,3.476,2.008Z" transform="translate(4.065 6.929) rotate(180)" fill="#e41970"/>
          </g>
        </g>
        <g id="Group_10898" data-name="Group 10898" transform="translate(11.192 4.679)">
          <g id="Group_10609-2" data-name="Group 10609" transform="translate(0)">
            <path id="Path_33043-2" data-name="Path 33043" d="M267.636,144.451a.943.943,0,0,1,.416.732l0,1.9a.254.254,0,0,1-.419.238l-2.74-1.58-.026,9.184a.277.277,0,0,1-.131.264.3.3,0,0,1-.3-.032l-2.045-1.18a.88.88,0,0,1-.294-.31.869.869,0,0,1-.121-.411L262,144.07c-.071-.434-.119.016-.128-.789l0-1.9a.266.266,0,0,1,.428-.243Z" transform="translate(-261.873 -141.082)" fill="#e41970"/>
          </g>
          <g id="Group_10899" data-name="Group 10899" transform="translate(1.461 6.252)">
            <path id="Path_33043-3" data-name="Path 33043" d="M267.137,144.132a.944.944,0,0,1,.416.732l.023,1.077a.254.254,0,0,1-.419.238l-2.74-1.58c-2.816-1.673,1.43.914-1.431-.734-.071-.434-.119.016-.128-.789L262.835,142a.266.266,0,0,1,.428-.243Z" transform="translate(-262.835 -141.697)" fill="#e41970"/>
          </g>
        </g>
        <g id="Group_10900" data-name="Group 10900" transform="translate(18.782 9.233)">
          <g id="Group_10609-3" data-name="Group 10609">
            <path id="Path_33043-4" data-name="Path 33043" d="M267.636,144.451a.943.943,0,0,1,.416.732l0,1.9a.254.254,0,0,1-.419.238l-2.74-1.58-.026,9.184a.277.277,0,0,1-.131.264.3.3,0,0,1-.3-.032l-2.045-1.18a.88.88,0,0,1-.294-.31.869.869,0,0,1-.121-.411L262,144.07c-.071-.434-.119.016-.128-.789l0-1.9a.266.266,0,0,1,.428-.243Z" transform="translate(-261.873 -141.082)" fill="#e41970"/>
          </g>
          <g id="Group_10899-2" data-name="Group 10899" transform="translate(1.461 6.252)">
            <path id="Path_33043-5" data-name="Path 33043" d="M267.137,144.132a.944.944,0,0,1,.416.732l.023,1.077a.254.254,0,0,1-.419.238l-2.74-1.58c-2.816-1.673,1.43.914-1.431-.734-.071-.434-.119.016-.128-.789L262.835,142a.266.266,0,0,1,.428-.243Z" transform="translate(-262.835 -141.697)" fill="#e41970"/>
          </g>
        </g>
        <g id="Group_10612" data-name="Group 10612" transform="translate(43.027 22.95)">
          <g id="Group_10611" data-name="Group 10611" transform="translate(0 0)">
            <path id="Path_33044" data-name="Path 33044" d="M274.559,148.361a.777.777,0,0,1,.295.32.81.81,0,0,1,.131.416l-.006,1.9a.275.275,0,0,1-.132.264.287.287,0,0,1-.3-.03l-4.791-2.767-.006,1.929,4.452,2.57a.826.826,0,0,1,.3.32.763.763,0,0,1,.12.411l0,1.9a.281.281,0,0,1-.123.27.308.308,0,0,1-.3-.03l-4.452-2.572-.006,2.008,4.923,2.842a.8.8,0,0,1,.294.311.885.885,0,0,1,.121.41l-.006,1.9a.3.3,0,0,1-.123.27.309.309,0,0,1-.3-.032l-7.384-4.263a.847.847,0,0,1-.295-.311.821.821,0,0,1-.131-.414l.033-11.563a.265.265,0,0,1,.131-.264.272.272,0,0,1,.3.02Z" transform="translate(-266.844 -144.117)" fill="#e41970"/>
          </g>
        </g>
      </g>
    </g>
    <g id="Group_10925" data-name="Group 10925" transform="translate(16940.277 7950.282)">
      <g id="Group_10923" data-name="Group 10923" transform="translate(105.16 0)">
        <path id="Path_26728" data-name="Path 26728" d="M838.619,621.731,949.19,557.9a2.705,2.705,0,0,0,0-4.688l-58.412-33.7a21.1,21.1,0,0,0-21.119,0L759.088,583.308a2.7,2.7,0,0,0,0,4.678l58.412,33.7A21.1,21.1,0,0,0,838.619,621.731Z" transform="translate(-757.724 -498.45)" fill="#83b9fd"/>
        <path id="Path_26729" data-name="Path 26729" d="M757.73,586.187l.05-12.5,12.309,6.471Z" transform="translate(-757.724 -498.96)" fill="#83b9fd"/>
        <path id="Path_26730" data-name="Path 26730" d="M952.111,555.781V543.76l-18.661,5.55Z" transform="translate(-759.298 -498.692)" fill="#83b9fd"/>
        <path id="Path_26731" data-name="Path 26731" d="M950.022,544.995a2.666,2.666,0,0,1-.842.743L838.619,609.561a21.129,21.129,0,0,1-21.119,0l-58.412-33.7a2.7,2.7,0,0,1,0-4.688l28.879-16.63,7.145-4.123,74.546-43.041a21.149,21.149,0,0,1,21.119,0l50.444,29.127,3.171,1.833,4.787,2.765a2.7,2.7,0,0,1,.842,3.885Z" transform="translate(-757.724 -498.341)" fill="#bcdaff"/>
        <path id="Path_26732" data-name="Path 26732" d="M947.842,542.9a2.636,2.636,0,0,1-.813.733L839.006,605.992a20.634,20.634,0,0,1-20.624,0L761.288,573.07a2.576,2.576,0,0,1-.823-.733,2.646,2.646,0,0,1,.823-3.845L789.5,552.2l6.987-4.034,72.832-42.05a20.634,20.634,0,0,1,20.634,0l49.284,28.463,3.112,1.784,4.678,2.706a2.626,2.626,0,0,1,.813,3.835Z" transform="translate(-757.744 -498.33)" fill="#e1f3ff"/>
        <path id="Path_26734" data-name="Path 26734" d="M762.35,567.671V564.49l2.478,1.6Z" transform="translate(-757.765 -498.878)" fill="#dcddeb"/>
        <path id="Path_26735" data-name="Path 26735" d="M947.631,539.041V535.86l-2.131,1.189Z" transform="translate(-759.406 -498.622)" fill="#dcddeb"/>
        <path id="Path_26736" data-name="Path 26736" d="M945.5,540.042a2.518,2.518,0,0,1-.793.713L839.394,601.546a20.078,20.078,0,0,1-20.108,0l-55.647-32.1a2.666,2.666,0,0,1-.8-.714,2.587,2.587,0,0,1,.8-3.746l27.511-15.857,6.808-3.964,71.008-40.99a20.148,20.148,0,0,1,20.118,0l48.046,27.749,2.973,1.744,4.559,2.636a2.567,2.567,0,0,1,.842,3.736Z" transform="translate(-757.765 -498.314)" fill="#bcdaff"/>
        <path id="Path_26737" data-name="Path 26737" d="M945.5,536.832a2.52,2.52,0,0,1-.793.714L839.394,598.336a20.108,20.108,0,0,1-20.108,0l-55.647-32.11a2.666,2.666,0,0,1-.8-.714,2.587,2.587,0,0,1,.8-3.746l27.511-15.857,6.808-3.964,71.008-40.97a20.148,20.148,0,0,1,20.118,0l48.046,27.749,2.973,1.744,4.559,2.636a2.567,2.567,0,0,1,.842,3.726Z" transform="translate(-757.765 -498.285)" fill="#e1f3ff"/>
        <g id="Group_10933" data-name="Group 10933" transform="translate(46.386 1.918)">
          <path id="Path_33829" data-name="Path 33829" d="M1029.23,562.019c-9.742,5.636-25.546,5.636-35.3,0s-9.753-14.749,0-20.385,25.558-5.624,35.3,0S1038.983,556.394,1029.23,562.019Z" transform="translate(-936.678 -510.107)" fill="#fcbb51"/>
          <path id="Path_33830" data-name="Path 33830" d="M1029.23,559.7c-9.742,5.624-25.546,5.624-35.3,0s-9.753-14.749,0-20.385,25.558-5.624,35.3,0S1038.983,554.075,1029.23,559.7Z" transform="translate(-936.678 -510.54)" fill="#ffcd5e"/>
          <ellipse id="Ellipse_1203" data-name="Ellipse 1203" cx="20.195" cy="11.664" rx="20.195" ry="11.664" transform="translate(54.713 27.303)" fill="#f9d895"/>
          <path id="Path_33831" data-name="Path 33831" d="M1004.8,552.129l-1.341.771-2.492-1.447,1.329-.771c-1.815-1.6-1.187-3.2,0-3.892l2.705,1.566s-1.293.878.534,1.946a3.773,3.773,0,0,0,3.1.368c1.329-.771-.985-2.219-1.519-2.67-.973-.854-2.492-2.373-.534-3.488a8.306,8.306,0,0,1,6.431,0l1.341-.771,2.5,1.448-1.341.771c1.626,1.376,1.412,2.658.249,3.334l-2.575-1.483c.261-.154.38-.736-.961-1.495a3.3,3.3,0,0,0-2.931-.225c-.842.486.759,1.412,1.187,1.815,1.187.985,3.56,2.741.807,4.343C1009.857,553.078,1007.1,553,1004.8,552.129Z" transform="translate(-934 -508.926)" fill="#ea9f32"/>
          <ellipse id="Ellipse_1204" data-name="Ellipse 1204" cx="24.965" cy="14.417" rx="24.965" ry="14.417" transform="translate(49.941 21.797)" fill="#fcbb51"/>
          <path id="Path_33832" data-name="Path 33832" d="M1029.23,555.058c-9.742,5.624-25.546,5.624-35.3,0s-9.753-14.761,0-20.385,25.558-5.624,35.3,0S1038.983,549.422,1029.23,555.058Z" transform="translate(-936.678 -511.405)" fill="#ffcd5e"/>
          <path id="Path_33833" data-name="Path 33833" d="M1025.11,552.68c-7.89,4.544-20.669,4.544-28.56,0s-7.879-11.937,0-16.493,20.67-4.556,28.56,0S1033,548.124,1025.11,552.68Z" transform="translate(-935.928 -510.973)" fill="#f9d895"/>
          <path id="Path_33834" data-name="Path 33834" d="M1004.8,547.477l-1.341.771-2.492-1.436,1.329-.771c-1.815-1.6-1.187-3.2,0-3.892l2.705,1.566s-1.293.878.534,1.934a3.738,3.738,0,0,0,3.1.38c1.329-.771-.985-2.219-1.519-2.682-.973-.842-2.492-2.373-.534-3.477a8.306,8.306,0,0,1,6.431,0l1.341-.771,2.5,1.448-1.341.771c1.626,1.376,1.412,2.658.249,3.334l-2.575-1.483c.261-.154.38-.736-.961-1.507a3.287,3.287,0,0,0-2.931-.214c-.842.486.759,1.412,1.187,1.815,1.187.985,3.56,2.741.807,4.343C1009.857,548.474,1007.1,548.355,1004.8,547.477Z" transform="translate(-934 -509.792)" fill="#ea9f32"/>
          <path id="Path_33835" data-name="Path 33835" d="M1029.23,552.738c-9.742,5.624-25.546,5.624-35.3,0s-9.753-14.761,0-20.385,25.558-5.624,35.3,0S1038.983,547.1,1029.23,552.738Z" transform="translate(-936.678 -511.838)" fill="#fcbb51"/>
          <ellipse id="Ellipse_1205" data-name="Ellipse 1205" cx="24.965" cy="14.417" rx="24.965" ry="14.417" transform="translate(49.941 13.539)" fill="#ffcd5e"/>
          <ellipse id="Ellipse_1206" data-name="Ellipse 1206" cx="20.195" cy="11.664" rx="20.195" ry="11.664" transform="translate(54.713 16.291)" fill="#f9d895"/>
          <path id="Path_33836" data-name="Path 33836" d="M1004.8,542.83l-1.341.771L1001,542.213l1.329-.771c-1.815-1.6-1.187-3.216,0-3.892l2.705,1.566s-1.293.878.534,1.934a3.832,3.832,0,0,0,3.1.38c1.329-.771-.985-2.219-1.519-2.682-.973-.842-2.492-2.373-.534-3.477a8.223,8.223,0,0,1,6.431,0l1.341-.771,2.5,1.436-1.341.771c1.626,1.376,1.412,2.67.249,3.346l-2.575-1.5c.261-.154.38-.724-.961-1.5a3.287,3.287,0,0,0-2.931-.214c-.842.475.76,1.4,1.187,1.815,1.187.973,3.56,2.741.807,4.343C1009.852,543.791,1007.1,543.708,1004.8,542.83Z" transform="translate(-933.994 -510.65)" fill="#ea9f32"/>
          <ellipse id="Ellipse_1207" data-name="Ellipse 1207" cx="24.965" cy="14.417" rx="24.965" ry="14.417" transform="translate(24.954 41.315)" fill="#fcbb51"/>
          <ellipse id="Ellipse_1208" data-name="Ellipse 1208" cx="24.965" cy="14.417" rx="24.965" ry="14.417" transform="translate(24.954 38.563)" fill="#ffcd5e"/>
          <ellipse id="Ellipse_1209" data-name="Ellipse 1209" cx="20.195" cy="11.664" rx="20.195" ry="11.664" transform="translate(29.724 41.315)" fill="#f9d895"/>
          <path id="Path_33837" data-name="Path 33837" d="M983.754,563.934l-1.341.771-2.5-1.5,1.341-.771c-1.815-1.59-1.187-3.2,0-3.88l2.717,1.566s-1.305.878.534,1.934a3.8,3.8,0,0,0,3.085.38c1.341-.771-.973-2.219-1.507-2.682-.973-.854-2.492-2.373-.534-3.477a8.224,8.224,0,0,1,6.431,0l1.341-.771,2.492,1.436-1.329.771c1.626,1.376,1.412,2.67.249,3.346l-2.6-1.412c.261-.154.38-.724-.961-1.5a3.3,3.3,0,0,0-2.931-.225c-.842.486.759,1.412,1.187,1.827,1.187.973,3.56,2.741.807,4.331C988.809,564.9,986.056,564.8,983.754,563.934Z" transform="translate(-937.93 -506.731)" fill="#ea9f32"/>
          <ellipse id="Ellipse_1210" data-name="Ellipse 1210" cx="24.965" cy="14.417" rx="24.965" ry="14.417" transform="translate(24.954 35.798)" fill="#fcbb51"/>
          <path id="Path_33838" data-name="Path 33838" d="M1008.179,566.869c-9.753,5.636-25.558,5.636-35.3,0s-9.753-14.749,0-20.385,25.546-5.624,35.3,0S1017.932,561.233,1008.179,566.869Z" transform="translate(-940.605 -509.203)" fill="#ffcd5e"/>
          <path id="Path_33839" data-name="Path 33839" d="M1004.061,564.478c-7.891,4.556-20.67,4.556-28.56,0s-7.891-11.937,0-16.481,20.67-4.556,28.56,0S1011.939,559.921,1004.061,564.478Z" transform="translate(-939.857 -508.77)" fill="#f9d895"/>
          <path id="Path_33840" data-name="Path 33840" d="M983.754,559.319l-1.341.771-2.5-1.448,1.341-.771c-1.815-1.59-1.187-3.2,0-3.88l2.717,1.554s-1.305.89.534,1.946a3.749,3.749,0,0,0,3.085.368c1.341-.771-.973-2.207-1.507-2.67-.973-.854-2.492-2.373-.534-3.488a8.306,8.306,0,0,1,6.431,0l1.341-.771,2.492,1.448-1.329.771c1.626,1.376,1.412,2.67.249,3.334L992.155,555c.261-.154.38-.724-.961-1.5a3.3,3.3,0,0,0-2.931-.225c-.843.486.759,1.412,1.187,1.815,1.187.985,3.56,2.753.807,4.343C988.809,560.244,986.056,560.149,983.754,559.319Z" transform="translate(-937.928 -507.586)" fill="#ea9f32"/>
          <ellipse id="Ellipse_1211" data-name="Ellipse 1211" cx="24.965" cy="14.417" rx="24.965" ry="14.417" transform="translate(24.954 30.293)" fill="#fcbb51"/>
          <path id="Path_33841" data-name="Path 33841" d="M1008.179,562.219c-9.753,5.624-25.558,5.624-35.3,0s-9.753-14.749,0-20.385,25.546-5.624,35.3,0S1017.932,556.594,1008.179,562.219Z" transform="translate(-940.605 -510.07)" fill="#ffcd5e"/>
          <ellipse id="Ellipse_1212" data-name="Ellipse 1212" cx="20.195" cy="11.664" rx="20.195" ry="11.664" transform="translate(29.724 30.293)" fill="#f9d895"/>
          <path id="Path_33842" data-name="Path 33842" d="M983.758,554.645l-1.365.795-2.5-1.448,1.341-.771c-1.815-1.6-1.187-3.2,0-3.892l2.717,1.566s-1.305.878.534,1.946a3.75,3.75,0,0,0,3.085.368c1.341-.771-.973-2.207-1.507-2.67-.973-.854-2.492-2.373-.534-3.488a8.306,8.306,0,0,1,6.431,0l1.341-.771,2.492,1.448-1.329.771c1.626,1.376,1.412,2.658.249,3.334l-2.575-1.483c.261-.154.38-.724-.961-1.5a3.3,3.3,0,0,0-2.931-.225c-.843.486.759,1.412,1.187,1.815,1.187.985,3.56,2.741.807,4.343C988.813,555.594,986.06,555.511,983.758,554.645Z" transform="translate(-937.934 -508.453)" fill="#ea9f32"/>
          <path id="Path_33843" data-name="Path 33843" d="M1008.179,559.869c-9.753,5.624-25.558,5.624-35.3,0s-9.753-14.749,0-20.385,25.546-5.624,35.3,0S1017.932,554.28,1008.179,559.869Z" transform="translate(-940.605 -510.508)" fill="#fcbb51"/>
          <ellipse id="Ellipse_1213" data-name="Ellipse 1213" cx="24.965" cy="14.417" rx="24.965" ry="14.417" transform="translate(24.954 22.034)" fill="#ffcd5e"/>
          <path id="Path_33844" data-name="Path 33844" d="M1004.061,555.2c-7.891,4.544-20.67,4.544-28.56,0s-7.891-11.937,0-16.493,20.67-4.556,28.56,0S1011.939,550.644,1004.061,555.2Z" transform="translate(-939.857 -510.503)" fill="#f9d895"/>
          <path id="Path_33845" data-name="Path 33845" d="M983.754,550l-1.341.771-2.5-1.436,1.341-.771c-1.815-1.6-1.187-3.2,0-3.892l2.717,1.566s-1.305.878.534,1.934a3.714,3.714,0,0,0,3.085.38c1.341-.771-.973-2.219-1.507-2.682-.973-.842-2.492-2.373-.534-3.477a8.306,8.306,0,0,1,6.431,0l1.341-.771,2.492,1.448-1.329.771c1.626,1.376,1.412,2.658.249,3.334l-2.6-1.542c.261-.154.38-.736-.961-1.507a3.287,3.287,0,0,0-2.931-.214c-.842.486.76,1.412,1.187,1.815,1.187.985,3.56,2.741.807,4.343C988.809,550.958,986.056,550.875,983.754,550Z" transform="translate(-937.928 -509.322)" fill="#ea9f32"/>
          <ellipse id="Ellipse_1214" data-name="Ellipse 1214" cx="24.965" cy="14.417" rx="24.965" ry="14.417" transform="translate(24.954 19.281)" fill="#fcbb51"/>
          <path id="Path_33846" data-name="Path 33846" d="M1008.179,552.939c-9.753,5.624-25.558,5.624-35.3,0s-9.753-14.761,0-20.385,25.546-5.636,35.3,0S1017.932,547.3,1008.179,552.939Z" transform="translate(-940.605 -511.801)" fill="#ffcd5e"/>
          <ellipse id="Ellipse_1215" data-name="Ellipse 1215" cx="20.195" cy="11.664" rx="20.195" ry="11.664" transform="translate(29.724 19.281)" fill="#f9d895"/>
          <path id="Path_33847" data-name="Path 33847" d="M983.754,545.317l-1.341.771-2.5-1.436,1.341-.771c-1.815-1.6-1.187-3.216,0-3.892l2.717,1.566s-1.305.878.534,1.934a3.8,3.8,0,0,0,3.085.38c1.341-.771-.973-2.219-1.507-2.682-.973-.842-2.492-2.373-.534-3.477a8.223,8.223,0,0,1,6.431,0l1.341-.771,2.492,1.436-1.329.771c1.626,1.376,1.412,2.67.249,3.346l-2.575-1.5c.261-.154.38-.724-.961-1.5a3.287,3.287,0,0,0-2.931-.214c-.842.475.759,1.4,1.187,1.815,1.187.973,3.56,2.741.807,4.343C988.809,546.326,986.056,546.243,983.754,545.317Z" transform="translate(-937.928 -510.195)" fill="#ea9f32"/>
          <ellipse id="Ellipse_1216" data-name="Ellipse 1216" cx="24.965" cy="14.417" rx="24.965" ry="14.417" transform="translate(24.954 13.775)" fill="#fcbb51"/>
          <ellipse id="Ellipse_1217" data-name="Ellipse 1217" cx="24.965" cy="14.417" rx="24.965" ry="14.417" transform="translate(24.954 11.023)" fill="#ffcd5e"/>
          <ellipse id="Ellipse_1218" data-name="Ellipse 1218" cx="20.195" cy="11.664" rx="20.195" ry="11.664" transform="translate(29.724 13.775)" fill="#f9d895"/>
          <path id="Path_33848" data-name="Path 33848" d="M983.754,540.719l-1.341.771-2.5-1.448,1.341-.771c-1.815-1.59-1.187-3.2,0-3.88l2.717,1.566s-1.305.878.534,1.934a3.8,3.8,0,0,0,3.085.38c1.341-.771-.973-2.219-1.507-2.682-.973-.854-2.492-2.373-.534-3.488a8.306,8.306,0,0,1,6.431,0l1.341-.771,2.492,1.436-1.329.771c1.626,1.376,1.412,2.67.249,3.346l-2.575-1.5c.261-.154.38-.724-.961-1.5a3.3,3.3,0,0,0-2.931-.225c-.843.486.759,1.412,1.187,1.827,1.187.973,3.56,2.741.807,4.331C988.809,541.68,986.056,541.585,983.754,540.719Z" transform="translate(-937.928 -511.055)" fill="#ea9f32"/>
          <ellipse id="Ellipse_1219" data-name="Ellipse 1219" cx="24.965" cy="14.417" rx="24.965" ry="14.417" transform="translate(24.954 8.258)" fill="#fcbb51"/>
          <path id="Path_33849" data-name="Path 33849" d="M1008.179,543.649c-9.753,5.636-25.558,5.636-35.3,0s-9.753-14.749,0-20.385,25.546-5.624,35.3,0S1017.932,537.977,1008.179,543.649Z" transform="translate(-940.605 -513.534)" fill="#ffcd5e"/>
          <path id="Path_33850" data-name="Path 33850" d="M1004.061,541.268c-7.891,4.556-20.67,4.556-28.56,0s-7.891-11.937,0-16.481,20.67-4.556,28.56,0S1011.939,536.711,1004.061,541.268Z" transform="translate(-939.857 -513.099)" fill="#f9d895"/>
          <path id="Path_33851" data-name="Path 33851" d="M983.754,536.079l-1.341.771-2.5-1.448,1.341-.771c-1.815-1.59-1.187-3.2,0-3.892l2.717,1.566s-1.305.89.534,1.946a3.75,3.75,0,0,0,3.085.368c1.341-.771-.973-2.207-1.507-2.67-.973-.854-2.492-2.373-.534-3.488a8.306,8.306,0,0,1,6.431,0l1.341-.771,2.492,1.448-1.329.771c1.626,1.376,1.412,2.67.249,3.334l-2.575-1.483c.261-.154.38-.724-.961-1.5a3.3,3.3,0,0,0-2.931-.225c-.843.486.759,1.412,1.187,1.815,1.187.985,3.56,2.753.807,4.343C988.809,537.04,986.056,536.945,983.754,536.079Z" transform="translate(-937.928 -511.921)" fill="#ea9f32"/>
          <ellipse id="Ellipse_1220" data-name="Ellipse 1220" cx="24.965" cy="14.417" rx="24.965" ry="14.417" transform="translate(24.954 2.752)" fill="#fcbb51"/>
          <ellipse id="Ellipse_1221" data-name="Ellipse 1221" cx="24.965" cy="14.417" rx="24.965" ry="14.417" transform="translate(24.954)" fill="#ffcd5e"/>
          <ellipse id="Ellipse_1222" data-name="Ellipse 1222" cx="20.195" cy="11.664" rx="20.195" ry="11.664" transform="translate(29.724 2.752)" fill="#f9d895"/>
          <path id="Path_33852" data-name="Path 33852" d="M983.754,531.439l-1.341.771-2.5-1.448,1.341-.771c-1.815-1.6-1.187-3.2,0-3.892l2.717,1.566s-1.305.878.534,1.946a3.75,3.75,0,0,0,3.085.368c1.341-.771-.973-2.219-1.507-2.682-.973-.842-2.492-2.373-.534-3.477a8.306,8.306,0,0,1,6.431,0l1.341-.771,2.492,1.448-1.329.771c1.626,1.376,1.412,2.658.249,3.334l-2.575-1.483c.261-.154.38-.736-.961-1.5a3.3,3.3,0,0,0-2.931-.225c-.843.486.759,1.412,1.187,1.815,1.187.985,3.56,2.741.807,4.343C988.809,532.388,986.056,532.305,983.754,531.439Z" transform="translate(-937.928 -512.786)" fill="#ea9f32"/>
          <ellipse id="Ellipse_1223" data-name="Ellipse 1223" cx="24.965" cy="14.417" rx="24.965" ry="14.417" transform="translate(0 56.456)" fill="#fcbb51"/>
          <path id="Path_33853" data-name="Path 33853" d="M987.139,584.269c-9.742,5.624-25.558,5.624-35.3,0s-9.753-14.749,0-20.385,25.558-5.624,35.3,0S996.892,578.644,987.139,584.269Z" transform="translate(-944.529 -505.957)" fill="#ffcd5e"/>
          <path id="Path_33854" data-name="Path 33854" d="M983.02,581.89c-7.89,4.556-20.67,4.556-28.56,0s-7.891-11.937,0-16.493,20.67-4.544,28.56,0S990.911,577.333,983.02,581.89Z" transform="translate(-943.781 -505.523)" fill="#f9d895"/>
          <path id="Path_33855" data-name="Path 33855" d="M962.711,576.7l-1.317.736-2.5-1.448,1.341-.771c-1.815-1.6-1.187-3.2,0-3.892l2.717,1.566s-1.293.878.534,1.946a3.75,3.75,0,0,0,3.085.368c1.341-.771-.973-2.219-1.507-2.67-.973-.854-2.492-2.373-.534-3.488a8.306,8.306,0,0,1,6.431,0l1.341-.771,2.5,1.448-1.341.771c1.626,1.376,1.412,2.658.249,3.334l-2.575-1.483c.261-.154.38-.736-.961-1.5a3.3,3.3,0,0,0-2.931-.225c-.842.486.759,1.412,1.187,1.815,1.187.985,3.56,2.741.807,4.343C967.765,577.654,965.013,577.571,962.711,576.7Z" transform="translate(-941.851 -504.349)" fill="#ea9f32"/>
          <ellipse id="Ellipse_1224" data-name="Ellipse 1224" cx="24.965" cy="14.417" rx="24.965" ry="14.417" transform="translate(0 50.95)" fill="#fcbb51"/>
          <ellipse id="Ellipse_1225" data-name="Ellipse 1225" cx="24.965" cy="14.417" rx="24.965" ry="14.417" transform="translate(0 48.198)" fill="#ffcd5e"/>
          <ellipse id="Ellipse_1226" data-name="Ellipse 1226" cx="20.195" cy="11.664" rx="20.195" ry="11.664" transform="translate(4.771 50.95)" fill="#f9d895"/>
          <path id="Path_33856" data-name="Path 33856" d="M962.714,572.047l-1.341.771-2.5-1.436,1.341-.771c-1.815-1.6-1.187-3.2,0-3.892l2.717,1.566s-1.293.878.534,1.934a3.714,3.714,0,0,0,3.085.38c1.341-.771-.973-2.219-1.507-2.682-.973-.842-2.492-2.373-.534-3.477a8.306,8.306,0,0,1,6.431,0l1.341-.771,2.5,1.448-1.341.771c1.626,1.376,1.412,2.658.249,3.334l-2.575-1.483c.261-.154.38-.736-.961-1.507a3.287,3.287,0,0,0-2.931-.214c-.842.487.76,1.412,1.187,1.816,1.187.985,3.56,2.741.807,4.343C967.769,573.008,965.016,572.925,962.714,572.047Z" transform="translate(-941.855 -505.209)" fill="#ea9f32"/>
          <ellipse id="Ellipse_1227" data-name="Ellipse 1227" cx="24.965" cy="14.417" rx="24.965" ry="14.417" transform="translate(0 45.445)" fill="#fcbb51"/>
          <path id="Path_33857" data-name="Path 33857" d="M987.139,574.989c-9.742,5.624-25.558,5.624-35.3,0s-9.753-14.761,0-20.385,25.558-5.636,35.3,0S996.892,569.353,987.139,574.989Z" transform="translate(-944.529 -507.688)" fill="#ffcd5e"/>
          <ellipse id="Ellipse_1228" data-name="Ellipse 1228" cx="20.195" cy="11.664" rx="20.195" ry="11.664" transform="translate(4.771 45.445)" fill="#f9d895"/>
          <path id="Path_33858" data-name="Path 33858" d="M962.714,567.407l-1.341.771-2.5-1.436,1.341-.771c-1.815-1.6-1.187-3.216,0-3.892l2.717,1.566s-1.293.878.534,1.934a3.8,3.8,0,0,0,3.085.38c1.341-.771-.973-2.219-1.507-2.682-.973-.842-2.492-2.373-.534-3.477a8.222,8.222,0,0,1,6.431,0l1.341-.771,2.5,1.436-1.341.771c1.626,1.376,1.412,2.67.249,3.346l-2.575-1.5c.261-.154.38-.724-.961-1.5a3.287,3.287,0,0,0-2.931-.214c-.842.475.76,1.4,1.187,1.815,1.187.973,3.56,2.741.807,4.343C967.769,568.368,965.016,568.285,962.714,567.407Z" transform="translate(-941.855 -506.074)" fill="#ea9f32"/>
          <ellipse id="Ellipse_1229" data-name="Ellipse 1229" cx="24.965" cy="14.417" rx="24.965" ry="14.417" transform="translate(0 39.939)" fill="#fcbb51"/>
          <path id="Path_33859" data-name="Path 33859" d="M987.139,570.337c-9.742,5.636-25.558,5.636-35.3,0s-9.753-14.749,0-20.373,25.558-5.636,35.3,0S996.892,564.713,987.139,570.337Z" transform="translate(-944.529 -508.553)" fill="#ffcd5e"/>
          <path id="Path_33860" data-name="Path 33860" d="M983.02,567.958c-7.89,4.556-20.67,4.556-28.56,0s-7.891-11.937,0-16.481,20.67-4.556,28.56,0S990.911,563.413,983.02,567.958Z" transform="translate(-943.781 -508.12)" fill="#f9d895"/>
          <path id="Path_33861" data-name="Path 33861" d="M962.714,562.769l-1.341.771-2.5-1.448,1.341-.771c-1.815-1.59-1.187-3.2,0-3.88l2.717,1.566s-1.293.878.534,1.934a3.8,3.8,0,0,0,3.085.38c1.341-.771-.973-2.219-1.507-2.682-.973-.854-2.492-2.373-.534-3.488a8.306,8.306,0,0,1,6.431,0l1.341-.771,2.5,1.436-1.341.771c1.626,1.376,1.412,2.67.249,3.334l-2.575-1.483c.261-.154.38-.724-.961-1.495a3.3,3.3,0,0,0-2.931-.225c-.842.486.76,1.412,1.187,1.827,1.187.973,3.56,2.741.807,4.331C967.769,563.73,965.016,563.635,962.714,562.769Z" transform="translate(-941.855 -506.942)" fill="#ea9f32"/>
          <path id="Path_33862" data-name="Path 33862" d="M987.139,568.017c-9.742,5.636-25.558,5.636-35.3,0s-9.753-14.749,0-20.373,25.558-5.636,35.3,0S996.892,562.393,987.139,568.017Z" transform="translate(-944.529 -508.986)" fill="#fcbb51"/>
          <ellipse id="Ellipse_1230" data-name="Ellipse 1230" cx="24.965" cy="14.417" rx="24.965" ry="14.417" transform="translate(0 31.669)" fill="#ffcd5e"/>
          <ellipse id="Ellipse_1231" data-name="Ellipse 1231" cx="20.195" cy="11.664" rx="20.195" ry="11.664" transform="translate(4.771 34.422)" fill="#f9d895"/>
          <path id="Path_33863" data-name="Path 33863" d="M962.714,558.129l-1.341.771-2.5-1.448,1.341-.771c-1.815-1.59-1.187-3.2,0-3.892l2.717,1.566s-1.293.89.534,1.946a3.75,3.75,0,0,0,3.085.368c1.341-.771-.973-2.207-1.507-2.67-.973-.854-2.492-2.373-.534-3.488a8.306,8.306,0,0,1,6.431,0l1.341-.771,2.5,1.448-1.341.771c1.626,1.376,1.412,2.67.249,3.334l-2.575-1.483c.261-.154.38-.724-.961-1.5a3.3,3.3,0,0,0-2.931-.225c-.842.486.76,1.412,1.187,1.815,1.187.985,3.56,2.753.807,4.343C967.769,559.09,965.016,559,962.714,558.129Z" transform="translate(-941.855 -507.807)" fill="#ea9f32"/>
          <ellipse id="Ellipse_1232" data-name="Ellipse 1232" cx="24.965" cy="14.417" rx="24.965" ry="14.417" transform="translate(0 28.916)" fill="#fcbb51"/>
          <ellipse id="Ellipse_1233" data-name="Ellipse 1233" cx="24.965" cy="14.417" rx="24.965" ry="14.417" transform="translate(0 26.163)" fill="#ffcd5e"/>
          <path id="Path_33864" data-name="Path 33864" d="M983.02,558.68c-7.89,4.556-20.67,4.556-28.56,0s-7.891-11.937,0-16.493,20.67-4.544,28.56,0S990.911,554.123,983.02,558.68Z" transform="translate(-943.781 -509.853)" fill="#f9d895"/>
          <path id="Path_33865" data-name="Path 33865" d="M962.714,553.48l-1.341.771-2.5-1.448,1.341-.712c-1.815-1.6-1.187-3.2,0-3.892l2.717,1.566s-1.293.878.534,1.946a3.749,3.749,0,0,0,3.085.368c1.341-.771-.973-2.219-1.507-2.682-.973-.842-2.492-2.373-.534-3.477a8.306,8.306,0,0,1,6.431,0l1.341-.771,2.5,1.448-1.341.771c1.626,1.376,1.412,2.658.249,3.334l-2.575-1.483c.261-.154.38-.736-.961-1.507a3.323,3.323,0,0,0-2.931-.214c-.842.486.76,1.412,1.187,1.815,1.187.985,3.56,2.741.807,4.343C967.769,554.464,965.016,554.346,962.714,553.48Z" transform="translate(-941.855 -508.664)" fill="#ea9f32"/>
        </g>
      </g>
      <g id="Group_10926" data-name="Group 10926" transform="translate(0 91.085)">
        <path id="Path_26633" data-name="Path 26633" d="M741.783,615.808l-6.065-3.5L681.26,643.121l6.313,3.637Z" transform="translate(-604.168 -599.311)" fill="#efeff4"/>
        <path id="Path_26634" data-name="Path 26634" d="M796.412,642.4l-11.605,6.63L718.16,610.545l10.416-6.045Z" transform="translate(-718.16 -599.24)" fill="#efeff4"/>
        <path id="Path_26738" data-name="Path 26738" d="M756.127,649.267a9.643,9.643,0,0,0,4.807-1.279l54.17-30.851a3.568,3.568,0,0,0,1.308-4.886h0a3.568,3.568,0,0,0-4.886-1.308l-54.17,30.841a2.478,2.478,0,0,1-2.448,0l-72.93-42.109a3.568,3.568,0,0,0-4.886,1.308h0a3.578,3.578,0,0,0,1.308,4.886l72.93,42.109A9.613,9.613,0,0,0,756.127,649.267Z" transform="translate(-672.692 -599.193)" fill="#a458c7"/>
      </g>
    </g>
    <g id="Group_10917" data-name="Group 10917" transform="translate(16792.523 7944.375)">
      <path id="Path_26672" data-name="Path 26672" d="M764.162,595.123,618.871,678.965a23.528,23.528,0,0,1-23.514,0l-77.392-44.681a3.87,3.87,0,0,1,0-6.8l145.279-83.777a23.488,23.488,0,0,1,23.514,0l77.392,44.681a3.87,3.87,0,0,1,.013,6.733Z" transform="translate(-515.931 -524.777)" fill="#b7bad2"/>
      <path id="Path_26673" data-name="Path 26673" d="M532.953,583.715l-.039-15.685-16.975,9.145Z" transform="translate(-282.762 -516.812)" fill="#b7bad2"/>
      <path id="Path_26674" data-name="Path 26674" d="M694.87,614.085V598.49l19.335,6.372Z" transform="translate(-694.811 -507.983)" fill="#b7bad2"/>
      <path id="Path_26675" data-name="Path 26675" d="M517.953,622.184l77.392,44.694a23.528,23.528,0,0,0,23.514,0l145.266-83.919a3.87,3.87,0,0,0,0-6.785l-77.392-44.707a23.579,23.579,0,0,0-23.527,0l-29.512,17.078-12,6.914L517.953,615.386a3.87,3.87,0,0,0,0,6.8Z" transform="translate(-515.933 -528.323)" fill="#efeff4"/>
      <path id="Path_26676" data-name="Path 26676" d="M547.692,606.67a3.87,3.87,0,0,0,1.806,2.373l50.241,29.009a23.579,23.579,0,0,0,23.527,0l90.975-52.537a3.928,3.928,0,0,0,0-6.8l-50.215-29.009a23.514,23.514,0,0,0-23.527,0l-90.975,52.524a3.87,3.87,0,0,0-1.832,4.437Z" transform="translate(-506.782 -523.037)" fill="#b7bad2"/>
      <path id="Path_26677" data-name="Path 26677" d="M547.652,606.2a3.869,3.869,0,0,0,1.806,2.373L599.7,637.583a23.579,23.579,0,0,0,23.527,0L714.2,585.047a2.438,2.438,0,0,0,0-4.721l-50.215-29.009a23.579,23.579,0,0,0-23.527,0L549.484,603.84a3.869,3.869,0,0,0-1.832,2.361Z" transform="translate(-506.743 -522.568)" fill="#fff"/>
      <path id="Path_26678" data-name="Path 26678" d="M663.307,617.608a15.9,15.9,0,0,0,14.356,0c3.96-2.283,3.96-6,0-8.281a15.827,15.827,0,0,0-14.356,0C659.348,611.61,659.348,615.325,663.307,617.608Z" transform="translate(-616.697 -505.34)" fill="#dcddeb"/>
      <path id="Path_26679" data-name="Path 26679" d="M662.6,613.613a3.869,3.869,0,0,0,2.077,2.464,11.429,11.429,0,0,0,10.319,0,3.869,3.869,0,0,0,2.077-2.463c.271-1.29-.426-2.58-2.077-3.509a11.506,11.506,0,0,0-10.319,0C663.027,611.059,662.369,612.362,662.6,613.613Z" transform="translate(-616.055 -504.97)" fill="#483f61"/>
      <path id="Path_26680" data-name="Path 26680" d="M662.61,613.38a3.87,3.87,0,0,0,2.077,2.464,11.429,11.429,0,0,0,10.319,0,2.5,2.5,0,0,0,0-4.927,11.428,11.428,0,0,0-10.319,0A3.869,3.869,0,0,0,662.61,613.38Z" transform="translate(-616.064 -504.737)" fill="#fff"/>
      <g id="Group_10915" data-name="Group 10915" transform="translate(102.197 59.401)">
        <path id="Path_26681" data-name="Path 26681" d="M683.243,578.169l-63.462-36.632a7.649,7.649,0,0,0-6.94,0L579.124,561c-1.909,1.109-1.909,2.9,0,4.012l63.436,36.62a7.74,7.74,0,0,0,6.953,0l33.73-19.452C685.165,581.072,685.165,579.279,683.243,578.169Z" transform="translate(-577.692 -536.564)" fill="#1e2d64"/>
        <path id="Path_26682" data-name="Path 26682" d="M683.243,574.959l-63.462-36.633a7.649,7.649,0,0,0-6.94,0l-33.717,19.464c-1.909,1.109-1.909,2.9,0,4.012l63.436,36.62a7.74,7.74,0,0,0,6.953,0l33.73-19.451C685.165,577.862,685.165,576.069,683.243,574.959Z" transform="translate(-577.692 -537.495)" fill="#098fd1" opacity="0.8"/>
        <path id="Path_26683" data-name="Path 26683" d="M597.16,580.263l2.373,1.367,20.6-11.88-2.386-1.38Z" transform="translate(-538.251 -528.545)" fill="#fff"/>
        <path id="Path_26684" data-name="Path 26684" d="M611.3,576.339l2.386,1.38,7.236-4.179-2.373-1.38Z" transform="translate(-557.28 -527.446)" fill="#fff"/>
        <path id="Path_26685" data-name="Path 26685" d="M617.58,573.742l2.386,1.38,4.011-2.322-2.386-1.38Z" transform="translate(-568.436 -527.661)" fill="#fff"/>
        <path id="Path_26686" data-name="Path 26686" d="M617.87,572.147l2.373,1.367,8.526-4.914-2.373-1.38Z" transform="translate(-573.601 -528.878)" fill="#fff"/>
        <path id="Path_26687" data-name="Path 26687" d="M622.65,569.789l2.386,1.38,7.236-4.179-2.373-1.38Z" transform="translate(-583.27 -529.345)" fill="#fff"/>
        <path id="Path_26688" data-name="Path 26688" d="M622.19,568.319l2.386,1.38,12.705-7.339-2.386-1.38Z" transform="translate(-587.686 -530.687)" fill="#fff"/>
        <path id="Path_26689" data-name="Path 26689" d="M622.27,566.76l2.373,1.367,17.491-10.1-2.373-1.367Z" transform="translate(-592.641 -531.939)" fill="#fff"/>
        <path id="Path_26690" data-name="Path 26690" d="M628.67,564.129l2.373,1.38,14.111-8.152-2.373-1.367Z" transform="translate(-603.917 -532.133)" fill="#fff"/>
        <path id="Path_26691" data-name="Path 26691" d="M624.86,563.222l2.386,1.367,23.9-13.8-2.373-1.367Z" transform="translate(-604.996 -534.038)" fill="#fff"/>
        <path id="Path_26692" data-name="Path 26692" d="M623.58,561.878l2.386,1.38,30.428-17.568-2.373-1.38Z" transform="translate(-608.592 -535.519)" fill="#fff"/>
      </g>
    </g>
    <g id="Group_10909" data-name="Group 10909" transform="translate(16799.783 7866.981)">
      <g id="Group_10906" data-name="Group 10906" transform="translate(0 0)">
        <path id="Path_27343" data-name="Path 27343" d="M620.478,542.52c0,.239-.638,5.319,1.835,6.011s5.665-.24,5.9.319a5.319,5.319,0,0,1-2.872,6.543c-2.66,1.356-2.66-.16-3.989.479s-2.952,5.08-6.277,4.335-3.218-1.622-3.218-1.622l1.809-14.5Z" transform="translate(-587.896 -377.682)" fill="#b77983"/>
        <path id="Path_27344" data-name="Path 27344" d="M606.315,517.32a75.864,75.864,0,0,0-.505,8.75,7.181,7.181,0,0,0,3.245,5.16,8.273,8.273,0,0,0,5.931-2.287c.718-1.33-2.287-3.484-2.155-5.585s2.208-.532,2.66-.957-3.245-5.08-3.245-5.08Z" transform="translate(-597.937 -419.506)" fill="#f9c4aa"/>
        <path id="Path_27345" data-name="Path 27345" d="M632.472,551.4s.8,4.149,2.872,3.99,4.016-.878,4.335-.559,1.835,4.149-.479,6.17-9.043,6.064-10.4,5.665-4.069-1.117-4.149-1.755,1.117-12.075,2.66-13.511S632.472,551.4,632.472,551.4Z" transform="translate(-566.671 -364.006)" fill="#b77983"/>
        <path id="Path_27346" data-name="Path 27346" d="M632.443,527.818s-1.915,34.257-2.66,37.608c-.266,1.356-1.569,5.745-3.032,10.639h0c-2.181,7.048-4.708,14.921-4.708,14.921-5.319,5.772-10.133,2.181-10.133,2.181s6.171-23.778,7.261-26.2-.266-23.326-2.66-26.6-1.676-18.618-1.676-18.618l5.319-3.963,4.708-3.511Z" transform="translate(-587.813 -424.551)" fill="#25377a"/>
        <path id="Path_27347" data-name="Path 27347" d="M607.056,558.936a11.144,11.144,0,0,0,8.671,0s-1.995-25-1.2-27.554,4.867-12,4.867-12l.665-26.6a11.33,11.33,0,0,0-2.979,4.069c-1.436,2.952-11.969,29.256-12.128,31.65S607.056,558.936,607.056,558.936Z" transform="translate(-599.37 -460.218)" fill="#00aeef"/>
        <path id="Path_27348" data-name="Path 27348" d="M627.265,527.884s-1.915,34.257-2.66,37.608c-.266,1.357-1.569,5.745-3.032,10.639a34.149,34.149,0,0,1,.851-9.548c1.037-1.755,0-13.3-4.5-19.15s-2.234-18.192-2.234-18.192l-.665-11.49,4.708-3.511Z" transform="translate(-582.635 -424.618)" fill="#1e2d64"/>
        <path id="Path_27349" data-name="Path 27349" d="M636.478,605.772s5.506,2.952,9.894,0c0,0,1.995-36.252,1.037-40.72s-9.575-46.172-10.931-46.651-18.937,4.2-18.937,4.2-.638,14.176,5.585,19.442,13.112,20.932,13.3,23.325S636.478,605.772,636.478,605.772Z" transform="translate(-578.497 -417.768)" fill="#25377a"/>
        <path id="Path_27350" data-name="Path 27350" d="M651.264,563.483a42.958,42.958,0,0,1-10.639,3.963,44.386,44.386,0,0,1-12.049,1.143l-.771-15.347-3.192,12.846s-8.458-4.522-11.49-9.149c0,0-1.915-25.294-2.66-33.086a274.892,274.892,0,0,1,0-28.113,4.229,4.229,0,0,1,3.484-3.537c2.287-.293,29.124,10.266,32.1,12.474a7.048,7.048,0,0,1,3.058,6.7c0,.319,0,2.527.133,5.825.111,3.167.281,7.37.486,12.221C650.356,544.253,651.264,563.483,651.264,563.483Z" transform="translate(-590.809 -461.201)" fill="#00aeef"/>
        <path id="Path_27351" data-name="Path 27351" d="M621.069,540.247c2.66-2.952.638-29.257,1.436-35.081a7.261,7.261,0,0,1,5.133-6.755l4.388,8.431C632.533,520.485,634,553.12,634,553.12a42.964,42.964,0,0,1-10.639,3.963C626.549,554.636,618.357,543.2,621.069,540.247Z" transform="translate(-573.541 -450.89)" fill="#5968f6"/>
        <path id="Path_27352" data-name="Path 27352" d="M629.412,511.818s-.292-5.878-.292-6.3,1.676-.293,2.048,1.383a16.63,16.63,0,0,0,3.4-1.888c.239-.505,1.676-4.708,2.394-4.388s2.66,9.708,1.622,11.2-5.771,7.314-5.771,7.314Z" transform="translate(-559.25 -447.25)" fill="#f9c4aa"/>
        <path id="Path_27353" data-name="Path 27353" d="M641.219,515.425a9.176,9.176,0,0,1,4.654,8.511s-9.468,18.91-11.543,20.24a4.282,4.282,0,0,1-5.878-1.569c-.771-1.782-6.3-34.071-6.463-36.012a8.378,8.378,0,0,1,6.755-8.724c5.771-.878,6.2,32.209,6.2,32.209Z" transform="translate(-571.11 -451.814)" fill="#00aeef"/>
        <path id="Path_27354" data-name="Path 27354" d="M628.34,497.357a6.33,6.33,0,0,0-2.287,4.548v1.436h-1.729c-3.032,0-9.123-.4-9.894-2.66l3.4-10.851,5.186,3.7Z" transform="translate(-583.631 -465.13)" fill="#f9c4aa"/>
        <path id="Path_27355" data-name="Path 27355" d="M623.112,495a6.329,6.329,0,0,0-2.287,4.548v1.436H619.1a4.92,4.92,0,0,1,.957-3.724c1.3-1.436-2.474-6.011-2.474-6.011h.213Z" transform="translate(-578.403 -462.774)" fill="#eda48a"/>
        <path id="Path_27356" data-name="Path 27356" d="M631.41,485.709s1.489,10.107-1.117,16.144c-2.1,4.787-2.314,4.867-2.979,4.787S615,496.348,615,496.348,630.958,480.23,631.41,485.709Z" transform="translate(-582.685 -473.856)" fill="#f9c4aa"/>
        <path id="Path_27357" data-name="Path 27357" d="M602.85,535.443l22.288-12.873,2.872.957-2.872,1.676v11.889l-19.416,11.224v2.606l-2.872-.957Z" transform="translate(-602.85 -410.792)" fill="#abb1f4"/>
        <path id="Path_27358" data-name="Path 27358" d="M603.93,535.8l22.288-12.873v14.522L603.93,550.325Z" transform="translate(-601.057 -410.195)" fill="#9093ef"/>
        <path id="Path_27359" data-name="Path 27359" d="M630.9,502.051s-.16-2.66-1.543-2.287-1.729,5.559.771,5.745c0,0-3.511,6.436-9.655,4.388,0,0-7.128-11.862-7.846-13.3s-1.995-10.878,3.59-13.83,7.58-1.7,7.58-1.7,8.857-2.66,12.314,4.016,1.33,13.99-2.819,15.027a4.124,4.124,0,0,0-2.393,1.942Z" transform="translate(-587.708 -480.543)" fill="#32285f"/>
        <path id="Path_27360" data-name="Path 27360" d="M605.677,538.766l-.957.532V528.021a1.941,1.941,0,0,1,.958-1.649l11.968-7a1.091,1.091,0,0,1,1.064,0,1.011,1.011,0,0,1,.505.9V530.92l-.957.559V520.308h0L606.289,527.3a.9.9,0,0,0-.505.825Z" transform="translate(-599.746 -416.323)" fill="#5f546f"/>
      </g>
    </g>
    <g id="Group_10904" data-name="Group 10904" transform="translate(16891.188 7842.123)">
      <path id="Path_27165" data-name="Path 27165" d="M682.291,528.337l-9.172-14.2a1.652,1.652,0,0,1,.5-2.3h0a1.669,1.669,0,0,1,2.316.485l9.154,14.162a1.669,1.669,0,0,1-.485,2.315h0a1.669,1.669,0,0,1-2.315-.467Z" transform="translate(-633.1 -395.704)" fill="#0f1446"/>
      <path id="Path_33790" data-name="Path 33790" d="M0,0,3.339,1.982V17.2H0Z" transform="translate(38.852 102.154)" fill="#0f1446"/>
      <path id="Path_27168" data-name="Path 27168" d="M681.094,544.536l-8.436-30.712a1.652,1.652,0,0,1,1.167-2.046h0a1.651,1.651,0,0,1,2.046,1.167l8.454,30.712a1.687,1.687,0,0,1-1.167,2.046h0a1.669,1.669,0,0,1-2.064-1.167Z" transform="translate(-633.303 -395.586)" fill="#0f1446"/>
      <path id="Path_27169" data-name="Path 27169" d="M667.148,533.532h0a1.687,1.687,0,0,1-.682-2.262l10.088-18.776a1.687,1.687,0,0,1,2.28-.664h0a1.687,1.687,0,0,1,.682,2.262L669.373,532.85a1.669,1.669,0,0,1-2.226.682Z" transform="translate(-638.33 -395.657)" fill="#0f1446"/>
      <path id="Path_27170" data-name="Path 27170" d="M644.08,452.74v69.627a11.075,11.075,0,0,0,4.649,8.867l75.982,43.851c2.567,1.49,4.649-.09,4.649-3.59V501.959a11.183,11.183,0,0,0-4.631-8.885l-76-43.815C646.162,447.75,644.08,449.258,644.08,452.74Z" transform="translate(-644.08 -448.675)" fill="#098fd1" opacity="0.647"/>
      <path id="Path_27171" data-name="Path 27171" d="M656.112,505.251l-3.052-1.759V483.28l3.052,1.741Z" transform="translate(-636.941 -421.165)" fill="#fff"/>
      <path id="Path_27172" data-name="Path 27172" d="M660.181,512.068l-3.052-1.759v-30.3l3.052,1.759Z" transform="translate(-633.705 -423.765)" fill="#fff"/>
      <path id="Path_27173" data-name="Path 27173" d="M664.244,512.479l-3.034-1.759V484.8l3.034,1.759Z" transform="translate(-630.462 -419.957)" fill="#fff"/>
      <path id="Path_27174" data-name="Path 27174" d="M668.321,513.374l-3.051-1.759V488.98l3.051,1.759Z" transform="translate(-627.234 -416.634)" fill="#fff"/>
      <path id="Path_27175" data-name="Path 27175" d="M672.383,520.064l-3.033-1.759V485.87l3.033,1.759Z" transform="translate(-623.991 -419.106)" fill="#fff"/>
      <path id="Path_27176" data-name="Path 27176" d="M676.453,525.642l-3.033-1.759V484.16l3.033,1.759Z" transform="translate(-620.755 -420.466)" fill="#fff"/>
      <path id="Path_27177" data-name="Path 27177" d="M680.524,529.979l-3.034-1.759V484.01l3.034,1.759Z" transform="translate(-617.52 -420.585)" fill="#fff"/>
      <path id="Path_27178" data-name="Path 27178" d="M684.594,534.4l-3.034-1.759V483.76l3.034,1.759Z" transform="translate(-614.284 -420.784)" fill="#fff"/>
      <path id="Path_27179" data-name="Path 27179" d="M714.433,480.093l-10.178-5.78L706.5,480l-28.953,8.418c-.5.162-1.167-.2-1.687-.915l-10.608-14.36c-.538-.754-1.239-1.095-1.8-.915l-12.924,5.008c-.736.269-.9,1.526-.377,2.8h0c.52,1.274,1.526,2.082,2.262,1.795l11.273-4.218c.521-.2,1.2.162,1.8.9L676,492.676c.52.718,1.185,1.077,1.687.933l30.676-8.975,2.136,5.385Z" transform="translate(-639.492 -429.986)" fill="#fff"/>
    </g>
    <g id="Group_10936" data-name="Group 10936" transform="translate(16844.273 7712.686)">
      <g id="Group_10398" data-name="Group 10398" transform="translate(0 21.441)">
        <g id="Group_10392" data-name="Group 10392">
          <path id="Path_32838" data-name="Path 32838" d="M241.414,367.146,324.32,319.28a5.358,5.358,0,0,1,5.359,0l53.371,30.814a4.242,4.242,0,0,1,0,7.349L350.406,376.29a15.6,15.6,0,0,1-15.6,0h0l-44.69,25.8a4.241,4.241,0,0,1-4.243,0l-44.455-25.666A5.358,5.358,0,0,1,241.414,367.146Z" transform="translate(-238.735 -309.91)" fill="#83b9fd"/>
          <path id="Path_32839" data-name="Path 32839" d="M241.414,360.064,324.32,312.2a5.358,5.358,0,0,1,5.359,0l53.371,30.813a4.243,4.243,0,0,1,0,7.35l-32.644,18.848a15.6,15.6,0,0,1-15.6,0h0l-44.69,25.8a4.241,4.241,0,0,1-4.243,0l-44.455-25.666A5.358,5.358,0,0,1,241.414,360.064Z" transform="translate(-238.735 -309.846)" fill="#a458c7"/>
          <path id="Path_32840" data-name="Path 32840" d="M241.414,358.415l82.907-47.865a5.358,5.358,0,0,1,5.359,0l53.371,30.814a4.243,4.243,0,0,1,0,7.35L350.406,367.56a15.607,15.607,0,0,1-15.6,0h0l-44.69,25.8a4.241,4.241,0,0,1-4.243,0L241.414,367.7A5.359,5.359,0,0,1,241.414,358.415Z" transform="translate(-238.735 -309.831)" fill="#d592f4"/>
        </g>
      </g>
      <g id="Group_10405" data-name="Group 10405" transform="translate(0 10.72)">
        <g id="Group_10399" data-name="Group 10399">
          <path id="Path_32849" data-name="Path 32849" d="M241.414,349.246,324.32,301.38a5.358,5.358,0,0,1,5.359,0l53.371,30.814a4.243,4.243,0,0,1,0,7.35l-32.644,18.848a15.607,15.607,0,0,1-15.6,0h0l-44.69,25.8a4.241,4.241,0,0,1-4.243,0l-44.455-25.665A5.359,5.359,0,0,1,241.414,349.246Z" transform="translate(-238.735 -299.028)" fill="#a458c7"/>
          <path id="Path_32850" data-name="Path 32850" d="M241.414,347.6l82.907-47.866a5.358,5.358,0,0,1,5.359,0l53.371,30.814a4.242,4.242,0,0,1,0,7.349l-32.644,18.848a15.6,15.6,0,0,1-15.6,0h0l-44.69,25.8a4.241,4.241,0,0,1-4.243,0l-44.455-25.666A5.358,5.358,0,0,1,241.414,347.6Z" transform="translate(-238.735 -299.013)" fill="#d592f4"/>
        </g>
      </g>
      <g id="Group_10412" data-name="Group 10412" transform="translate(0 0)">
        <g id="Group_10406" data-name="Group 10406">
          <path id="Path_32859" data-name="Path 32859" d="M241.414,338.429l82.907-47.866a5.358,5.358,0,0,1,5.359,0l53.371,30.814a4.242,4.242,0,0,1,0,7.349l-32.644,18.848a15.6,15.6,0,0,1-15.6,0h0l-44.69,25.8a4.241,4.241,0,0,1-4.243,0l-44.455-25.666A5.358,5.358,0,0,1,241.414,338.429Z" transform="translate(-238.735 -288.211)" fill="#a458c7"/>
          <path id="Path_32860" data-name="Path 32860" d="M241.414,336.78l82.907-47.865a5.358,5.358,0,0,1,5.359,0l53.371,30.814a4.243,4.243,0,0,1,0,7.35l-32.644,18.848a15.607,15.607,0,0,1-15.6,0h0l-44.69,25.8a4.246,4.246,0,0,1-4.243,0l-44.455-25.666A5.359,5.359,0,0,1,241.414,336.78Z" transform="translate(-238.735 -288.196)" fill="#d592f4"/>
          <g id="Group_10935" data-name="Group 10935" transform="translate(20.762 -20.367)">
            <ellipse id="Ellipse_957" data-name="Ellipse 957" cx="7.131" cy="4.116" rx="7.131" ry="4.116" transform="translate(29.416 88.985) rotate(-60)" fill="#4e475e"/>
            <path id="Path_25040" data-name="Path 25040" d="M922,393.339a11.187,11.187,0,0,1-5.043,8.746c-2.787,1.621-5.043.3-5.043-2.915a11.194,11.194,0,0,1,5.043-8.746C919.734,388.8,922,390.12,922,393.339Z" transform="translate(-847.908 -330.131)" fill="#4e475e"/>
            <ellipse id="Ellipse_958" data-name="Ellipse 958" cx="7.131" cy="4.116" rx="7.131" ry="4.116" transform="translate(81.443 58.963) rotate(-60)" fill="#4e475e"/>
            <path id="Path_25041" data-name="Path 25041" d="M846.78,421.666l52.02-30.044V384.13l-52.02,30.027Z" transform="translate(-820.752 -327.796)" fill="#1e2d64"/>
            <path id="Path_25042" data-name="Path 25042" d="M828.167,399.647l71.511-41.285-19.509-9.031L802.14,384.639Z" transform="translate(-802.14 -313.286)" fill="#424bb1"/>
            <path id="Path_25043" data-name="Path 25043" d="M828.167,403.416,802.14,388.408V358.37l26.027,15.019Z" transform="translate(-802.14 -317.055)" fill="#c0c2d1"/>
            <path id="Path_25045" data-name="Path 25045" d="M936,383.571l19.491-11.241v-7.51L936,376.079Z" transform="translate(-857.953 -319.745)" fill="#1e2d64"/>
            <path id="Path_25046" data-name="Path 25046" d="M947.13,350.848V313.3s13.008,0,13.008,15.019v15.019Z" transform="translate(-862.594 -298.263)" fill="#424bb1"/>
            <path id="Path_25047" data-name="Path 25047" d="M902.49,325.075V287.51s13.008.07,13.008,15.037v15.019Z" transform="translate(-843.981 -287.51)" fill="#424bb1"/>
            <path id="Path_25048" data-name="Path 25048" d="M902.49,326.593l26.027,15.019,6.431-35.711-25.59-14.751Z" transform="translate(-843.981 -289.028)" fill="#424bb1"/>
            <path id="Path_25049" data-name="Path 25049" d="M897.851,287.51l-6.5,3.755L917.365,306.3l6.5-3.755Z" transform="translate(-839.336 -287.51)" fill="#86cce8"/>
            <path id="Path_25050" data-name="Path 25050" d="M891.35,293.95v4.11l26.016,14.868v-3.941Z" transform="translate(-839.336 -290.195)" fill="#41b8e4"/>
            <path id="Path_25051" data-name="Path 25051" d="M935.97,321l6.5-3.941V313.3l-6.5,3.755Z" transform="translate(-857.94 -298.263)" fill="#00a4e1"/>
            <path id="Path_25052" data-name="Path 25052" d="M870.507,428.059a11.2,11.2,0,0,1-5.043,8.746c-2.781,1.621-5.043.3-5.043-2.915a11.178,11.178,0,0,1,5.043-8.746C868.25,423.523,870.507,424.84,870.507,428.059Z" transform="translate(-826.44 -344.608)" fill="#433a51"/>
            <path id="Path_25053" data-name="Path 25053" d="M869.868,431.361a6.25,6.25,0,0,1-2.839,4.915c-1.09.63-2.035.466-2.513-.3a2.537,2.537,0,0,1-.326-1.335,6.291,6.291,0,0,1,2.84-4.915,1.749,1.749,0,0,1,2.839,1.638Z" transform="translate(-828.01 -346.64)" fill="#c0c2d1"/>
            <path id="Path_25054" data-name="Path 25054" d="M869.372,430.91a6.251,6.251,0,0,1-2.839,4.915,1.977,1.977,0,0,1-2.017.192,2.536,2.536,0,0,1-.326-1.335,6.291,6.291,0,0,1,2.839-4.915,1.988,1.988,0,0,1,2.017-.192A2.482,2.482,0,0,1,869.372,430.91Z" transform="translate(-828.01 -346.666)" fill="#efeff4"/>
            <ellipse id="Ellipse_959" data-name="Ellipse 959" cx="7.131" cy="4.116" rx="7.131" ry="4.116" transform="translate(64.395 71.719) rotate(-60)" fill="#433a51"/>
            <path id="Path_25055" data-name="Path 25055" d="M925.618,399.192a6.25,6.25,0,0,1-2.839,4.915c-1.09.63-2.035.466-2.513-.3a2.537,2.537,0,0,1-.327-1.335,6.291,6.291,0,0,1,2.839-4.915,1.749,1.749,0,0,1,2.839,1.638Z" transform="translate(-851.255 -333.226)" fill="#c0c2d1"/>
            <path id="Path_25056" data-name="Path 25056" d="M925.122,398.709a6.25,6.25,0,0,1-2.839,4.915,1.988,1.988,0,0,1-2.017.192,2.538,2.538,0,0,1-.327-1.335,6.291,6.291,0,0,1,2.839-4.915,1.976,1.976,0,0,1,2.017-.192,2.471,2.471,0,0,1,.326,1.335Z" transform="translate(-851.256 -333.239)" fill="#efeff4"/>
            <ellipse id="Ellipse_960" data-name="Ellipse 960" cx="7.131" cy="4.116" rx="7.131" ry="4.116" transform="translate(83.923 60.453) rotate(-60)" fill="#433a51"/>
            <path id="Path_25057" data-name="Path 25057" d="M959.107,379.872a6.274,6.274,0,0,1-2.839,4.915c-1.09.63-2.041.466-2.513-.3a2.485,2.485,0,0,1-.326-1.335,6.262,6.262,0,0,1,2.839-4.915,1.749,1.749,0,0,1,2.839,1.638Z" transform="translate(-865.219 -325.17)" fill="#c0c2d1"/>
            <path id="Path_25058" data-name="Path 25058" d="M958.612,379.388a6.274,6.274,0,0,1-2.839,4.915,1.988,1.988,0,0,1-2.017.192,2.484,2.484,0,0,1-.326-1.335,6.262,6.262,0,0,1,2.839-4.915,1.994,1.994,0,0,1,2.017-.2,2.56,2.56,0,0,1,.327,1.341Z" transform="translate(-865.219 -325.182)" fill="#efeff4"/>
            <path id="Path_25059" data-name="Path 25059" d="M846.78,392.663V362.636L898.8,332.58v30.056Z" transform="translate(-820.752 -306.302)" fill="#efeff4"/>
            <path id="Path_25060" data-name="Path 25060" d="M856.289,380.2h0c1.23-.711,2.233.047,2.233,1.691v20.937a5.369,5.369,0,0,1-2.233,4.274h0c-1.236.711-2.239-.047-2.239-1.691V384.473A5.358,5.358,0,0,1,856.289,380.2Z" transform="translate(-823.784 -326.046)" fill="#c0c2d1"/>
            <path id="Path_25061" data-name="Path 25061" d="M867.469,373.909h0c1.236-.711,2.233.047,2.233,1.691v20.937a5.344,5.344,0,0,1-2.233,4.274h0c-1.236.711-2.239-.041-2.239-1.691V378.183A5.449,5.449,0,0,1,867.469,373.909Z" transform="translate(-828.445 -323.423)" fill="#c0c2d1"/>
            <path id="Path_25062" data-name="Path 25062" d="M878.593,367.319h0c1.236-.711,2.239.047,2.239,1.691v20.937a5.358,5.358,0,0,1-2.239,4.274h0c-1.23.711-2.233-.047-2.233-1.691V371.593A5.351,5.351,0,0,1,878.593,367.319Z" transform="translate(-833.086 -320.675)" fill="#c0c2d1"/>
            <path id="Path_25063" data-name="Path 25063" d="M889.789,362.106h0c1.236-.717,2.239.041,2.239,1.691v20.931a5.369,5.369,0,0,1-2.239,4.28h0c-1.236.711-2.239-.047-2.239-1.691V366.38A5.349,5.349,0,0,1,889.789,362.106Z" transform="translate(-837.752 -318.501)" fill="#c0c2d1"/>
            <path id="Path_25064" data-name="Path 25064" d="M900.9,354.449h0c1.236-.711,2.239.047,2.239,1.7v20.931a5.35,5.35,0,0,1-2.239,4.274h0c-1.23.717-2.233-.041-2.233-1.691V358.74A5.385,5.385,0,0,1,900.9,354.449Z" transform="translate(-842.388 -315.309)" fill="#c0c2d1"/>
            <path id="Path_25065" data-name="Path 25065" d="M912.083,348h0c1.236-.711,2.239.041,2.239,1.691v20.937a5.367,5.367,0,0,1-2.239,4.274h0c-1.236.711-2.233-.047-2.233-1.691V352.272A5.345,5.345,0,0,1,912.083,348Z" transform="translate(-847.049 -312.619)" fill="#c0c2d1"/>
            <path id="Path_25066" data-name="Path 25066" d="M923.239,341.557h0c1.236-.717,2.233.041,2.233,1.691v20.931a5.364,5.364,0,0,1-2.233,4.279h0c-1.236.711-2.239-.047-2.239-1.7V345.83A5.375,5.375,0,0,1,923.239,341.557Z" transform="translate(-851.699 -309.932)" fill="#c0c2d1"/>
            <path id="Path_25067" data-name="Path 25067" d="M802.14,336.876l52.031-30.056,26.015,15.019L828.167,351.9Z" transform="translate(-802.14 -295.561)" fill="#e5e5ea"/>
            <path id="Path_25068" data-name="Path 25068" d="M959.4,331.677l-9.329,5.393V318.64a9.521,9.521,0,0,1,3.428.845h0C959.69,322.43,959.4,331.677,959.4,331.677Z" transform="translate(-863.819 -300.49)" fill="#c0c2d1"/>
            <path id="Path_25069" data-name="Path 25069" d="M958.874,331.42,950,336.534V318.64a9.52,9.52,0,0,1,3.428.845h0C959.148,322.675,958.874,331.42,958.874,331.42Z" transform="translate(-863.79 -300.49)" fill="#efeff4"/>
            <path id="Path_27723" data-name="Path 27723" d="M25.727,118.219-.3,103.193v7.134l26.03,15.462Z" transform="translate(0.303 -31.875)" fill="#1e2d64"/>
          </g>
        </g>
      </g>
    </g>
    <path id="Path_33868" data-name="Path 33868" d="M1107.464,517.719a10.271,10.271,0,0,1-5.177,9.509l-26.971,14.164-8.719-5.041,31.3-16.671a1.661,1.661,0,0,0,.845-1.444,1.58,1.58,0,0,0-.845-1.444l-62.618-37.709a4.387,4.387,0,0,1-1.689-5.967,4.3,4.3,0,0,1,3.787-2.207,4.359,4.359,0,0,1,2.152.545l62.182,37.409A10.9,10.9,0,0,1,1107.464,517.719Z" transform="translate(16131.493 7429.022)" fill="#c478e6"/>
  </g>
</svg>
